<?xml version="1.0" encoding="UTF-8"?>
<svg id="logo" xmlns="http://www.w3.org/2000/svg" viewBox="0 0 400 500">
  <defs>
    <style>
      .cls-1, .cls-2 {
        stroke-width: 0px;
      }

      .cls-2 {
        fill: #ff0043;
      }
    </style>
  </defs>
  <g>
    <path class="cls-2" d="m262.69,235c-66.3,0-128.59-24.54-175.41-69.09C44.41,125.11,19.26,71.99,15.49,15h253.14c35.28,0,65.05,11.61,86.08,33.59,18.71,19.55,29.45,46.02,30.23,74.54.77,28.01-8.22,54.4-25.31,74.31-19.23,22.4-47.71,35.25-82.35,37.16-4.83.27-9.75.4-14.61.4Z"/>
    <path class="cls-1" d="m268.64,30c31.09,0,57.11,10.01,75.25,28.96,16.13,16.85,25.39,39.79,26.08,64.58.67,24.27-7.04,47.05-21.7,64.12-16.51,19.23-41.33,30.28-71.79,31.96-4.56.25-9.2.38-13.78.38-31.61,0-62.24-5.88-91.05-17.48-27.75-11.17-52.65-27.14-74.02-47.48-21.26-20.24-37.94-43.76-49.56-69.92-7.88-17.72-13.2-36.18-15.93-55.13h236.5m0-30H0c0,138.07,117.61,250,262.69,250,5.18,0,10.33-.14,15.43-.42C446.68,240.28,437.48,0,268.64,0h0Z"/>
  </g>
  <g>
    <path class="cls-2" d="m131.36,485c-35.28,0-65.05-11.61-86.08-33.59-18.71-19.55-29.45-46.02-30.23-74.54-.77-28.01,8.22-54.4,25.31-74.31,19.23-22.4,47.71-35.25,82.35-37.16,4.83-.27,9.74-.4,14.61-.4,66.3,0,128.59,24.54,175.41,69.09,42.87,40.8,68.03,93.92,71.79,150.91h-253.14Z"/>
    <path class="cls-1" d="m137.31,280c31.61,0,62.24,5.88,91.05,17.48,27.75,11.17,52.65,27.14,74.02,47.48,21.26,20.24,37.94,43.76,49.56,69.92,7.88,17.72,13.2,36.18,15.93,55.13h-236.5c-31.09,0-57.11-10.01-75.25-28.96-16.13-16.85-25.39-39.79-26.08-64.58-.67-24.27,7.04-47.05,21.7-64.12,16.51-19.23,41.33-30.28,71.79-31.96,4.56-.25,9.2-.38,13.78-.38m0-30c-5.18,0-10.33.14-15.43.42-168.56,9.29-159.35,249.58,9.49,249.58h268.64c0-138.07-117.61-250-262.69-250h0Z"/>
  </g>
</svg>