<?xml version="1.0" encoding="UTF-8"?>
<svg id="Layer_1" xmlns="http://www.w3.org/2000/svg" viewBox="0 0 800 500">
  <defs>
    <style>
      .cls-1 {
        fill: #fff;
      }

      .cls-2 {
        fill: none;
        stroke: #000;
        stroke-linecap: round;
        stroke-miterlimit: 10;
        stroke-width: 50px;
      }

      .cls-3 {
        fill: #000;
      }
    </style>
  </defs>
  <g id="Light">
    <rect id="Background" class="cls-1" width="800" height="500"/>
    <g id="Wordmark">
      <path id="B" class="cls-3" d="M649.74,374.14v-48.46h18.55c3.5,0,6.42.55,8.75,1.65s4.07,2.59,5.23,4.49c1.16,1.89,1.74,4.04,1.74,6.44,0,1.97-.38,3.66-1.14,5.05-.76,1.4-1.78,2.53-3.05,3.4-1.28.87-2.71,1.49-4.28,1.87v.47c1.72.1,3.37.62,4.96,1.57s2.88,2.3,3.89,4.04c1.01,1.74,1.51,3.83,1.51,6.3s-.61,4.76-1.82,6.76-3.05,3.57-5.49,4.72c-2.45,1.15-5.52,1.73-9.23,1.73h-19.62ZM658.52,346.29h8.69c1.51,0,2.88-.28,4.1-.84,1.21-.56,2.17-1.36,2.88-2.39.7-1.03,1.05-2.26,1.05-3.68,0-1.88-.66-3.42-1.98-4.64s-3.27-1.82-5.86-1.82h-8.88v13.36h0ZM658.52,366.8h9.44c3.19,0,5.49-.61,6.9-1.83,1.41-1.22,2.12-2.8,2.12-4.72,0-1.44-.35-2.73-1.06-3.89s-1.72-2.08-3.03-2.75c-1.31-.67-2.87-1.01-4.69-1.01h-9.68v14.19Z"/>
      <path id="A" class="cls-3" d="M629.6,325.68h-10.85l-17.05,48.46h9.37l4.01-11.95h18.23l4.01,11.95h9.37l-17.08-48.46ZM617.44,355.14l6.56-19.52h.37l6.57,19.52h-13.5.01Z"/>
      <path id="L" class="cls-3" d="M570.47,374.14v-48.46h8.78v41.1h21.34v7.36h-30.12Z"/>
      <path id="S" class="cls-3" d="M546.81,337.79c-.28-2.4-1.44-4.26-3.46-5.59s-4.5-1.99-7.43-1.99c-2.15,0-4.02.35-5.62,1.04s-2.85,1.65-3.74,2.86c-.89,1.22-1.34,2.6-1.34,4.14,0,1.29.31,2.4.93,3.33s1.42,1.69,2.4,2.3c.98.61,2,1.1,3.08,1.49,1.07.39,2.06.7,2.96.93l4.92,1.33c1.26.33,2.67.79,4.23,1.37s3.05,1.38,4.47,2.38c1.43,1,2.61,2.28,3.54,3.85.93,1.56,1.4,3.48,1.4,5.75,0,2.62-.68,4.99-2.05,7.1-1.37,2.12-3.35,3.8-5.96,5.04-2.61,1.25-5.78,1.87-9.5,1.87-3.47,0-6.47-.56-9.01-1.68-2.53-1.12-4.52-2.68-5.96-4.69-1.44-2-2.26-4.33-2.45-6.98h6.06c.16,1.83.78,3.34,1.86,4.53s2.45,2.08,4.12,2.65c1.66.58,3.46.86,5.39.86,2.24,0,4.25-.37,6.04-1.1,1.78-.73,3.2-1.76,4.24-3.08,1.04-1.32,1.56-2.86,1.56-4.63,0-1.61-.45-2.92-1.35-3.93-.9-1.01-2.08-1.83-3.55-2.46s-3.05-1.18-4.76-1.66l-5.96-1.7c-3.79-1.09-6.79-2.64-9-4.66s-3.31-4.66-3.31-7.93c0-2.71.74-5.09,2.21-7.11,1.48-2.03,3.46-3.61,5.96-4.73,2.5-1.13,5.3-1.69,8.39-1.69s5.9.56,8.33,1.67,4.36,2.63,5.79,4.56,2.18,4.11,2.26,6.56h-5.69Z"/>
      <path id="U" class="cls-3" d="M506.04,325.68h5.87v32.09c0,3.31-.78,6.27-2.33,8.87s-3.74,4.64-6.57,6.13c-2.82,1.49-6.14,2.24-9.94,2.24s-7.12-.75-9.94-2.24c-2.83-1.49-5.01-3.53-6.57-6.13s-2.33-5.55-2.33-8.87v-32.09h5.87v31.62c0,2.37.52,4.47,1.56,6.31s2.53,3.28,4.46,4.33,4.25,1.57,6.95,1.57,5.02-.52,6.96-1.57c1.94-1.05,3.43-2.49,4.46-4.33s1.55-3.94,1.55-6.31v-31.62h0Z"/>
      <path id="U-2" class="cls-3" d="M459.96,325.68h5.87v32.09c0,3.31-.78,6.27-2.33,8.87s-3.74,4.64-6.57,6.13c-2.82,1.49-6.14,2.24-9.94,2.24s-7.12-.75-9.94-2.24c-2.83-1.49-5.01-3.53-6.57-6.13s-2.33-5.55-2.33-8.87v-32.09h5.87v31.62c0,2.37.52,4.47,1.56,6.31s2.53,3.28,4.46,4.33,4.25,1.57,6.95,1.57,5.02-.52,6.96-1.57c1.94-1.05,3.43-2.49,4.46-4.33s1.55-3.94,1.55-6.31v-31.62h0Z"/>
      <path id="G" class="cls-3" d="M421.45,349.9v5.21c0,3.99-.84,7.47-2.55,10.41-1.69,2.96-4.03,5.24-7,6.85-2.97,1.63-6.39,2.43-10.24,2.43-4.29,0-8.07-1.01-11.31-3.03-3.24-2.03-5.77-4.89-7.57-8.61-1.81-3.73-2.71-8.15-2.71-13.26,0-3.83.51-7.28,1.55-10.36,1.03-3.07,2.49-5.68,4.39-7.84s4.13-3.83,6.73-4.97c2.59-1.15,5.43-1.73,8.55-1.73,2.55,0,4.93.39,7.16,1.16,2.21.76,4.2,1.84,5.93,3.24,1.75,1.4,3.2,3.05,4.37,4.99s1.97,4.08,2.41,6.43h-6.07c-.52-1.59-1.2-3.01-2.04-4.29-.84-1.27-1.85-2.35-3.01-3.25-1.16-.89-2.47-1.59-3.93-2.05-1.47-.48-3.08-.72-4.83-.72-2.88,0-5.49.75-7.84,2.23-2.36,1.49-4.23,3.67-5.61,6.56s-2.08,6.43-2.08,10.63.69,7.75,2.11,10.64c1.4,2.88,3.31,5.07,5.71,6.55,2.4,1.49,5.09,2.23,8.09,2.23,2.77,0,5.23-.59,7.35-1.79,2.12-1.19,3.79-2.88,4.97-5.07,1.15-2.09,1.73-4.55,1.77-7.35h-12.76v-5.21h18.45v-.02Z"/>
    </g>
    <path class="cls-3" d="M703,331c-2.07,0-4-.39-5.82-1.17s-3.41-1.85-4.79-3.23-2.46-2.97-3.24-4.78c-.78-1.81-1.17-3.75-1.16-5.82,0-2.07.4-4.02,1.19-5.82s1.86-3.4,3.23-4.78,2.96-2.46,4.77-3.23c1.81-.78,3.75-1.16,5.81-1.16s4.02.39,5.83,1.16c1.81.78,3.4,1.85,4.77,3.23s2.44,2.97,3.22,4.78,1.17,3.75,1.18,5.82c0,2.07-.37,4.02-1.15,5.82-.78,1.81-1.85,3.4-3.22,4.78s-2.97,2.46-4.79,3.23-3.76,1.17-5.84,1.17h0ZM703,328.5c1.73,0,3.36-.32,4.87-.97s2.84-1.54,3.98-2.68c1.14-1.14,2.04-2.47,2.68-3.98.65-1.51.97-3.13.96-4.85,0-1.73-.34-3.36-.99-4.87-.65-1.52-1.54-2.84-2.68-3.98s-2.46-2.04-3.97-2.68c-1.51-.65-3.12-.97-4.86-.97s-3.34.32-4.84.97c-1.51.65-2.83,1.55-3.97,2.69-1.14,1.15-2.04,2.47-2.69,3.98s-.99,3.13-.99,4.87.31,3.33.96,4.84,1.55,2.84,2.69,3.98c1.15,1.14,2.48,2.04,3.99,2.69s3.13.98,4.86.98v-.02ZM694.79,316c0-1.55.38-2.97,1.14-4.25s1.78-2.3,3.05-3.05c1.28-.76,2.69-1.14,4.25-1.14,1.27,0,2.44.26,3.51.78s1.97,1.23,2.69,2.14c.72.9,1.21,1.93,1.46,3.09h-2.64c-.28-1.03-.89-1.88-1.82-2.53s-1.99-.98-3.2-.98c-1.09,0-2.08.27-2.98.8-.9.53-1.62,1.25-2.15,2.14-.54.9-.8,1.89-.8,2.99s.27,2.08.8,2.98c.54.9,1.25,1.62,2.15,2.15.9.54,1.89.8,2.98.8,1.2,0,2.24-.33,3.1-.98.86-.65,1.44-1.5,1.73-2.53h2.63c-.24,1.16-.7,2.19-1.39,3.09s-1.56,1.62-2.6,2.14c-1.04.52-2.2.78-3.47.78-1.55,0-2.97-.38-4.25-1.14s-2.3-1.78-3.05-3.05-1.14-2.69-1.14-4.25v.02Z"/>
    <path id="Brandmark" class="cls-2" d="M230,350v-50c0-27.62,22.38-50,50-50h0c27.62,0,50,22.38,50,50h0c0,27.62-22.38,50-50,50h-50c-55.23,0-100-44.77-100-100h0c0-55.23,44.77-100,100-100h100"/>
  </g>
</svg>