<?xml version="1.0" encoding="UTF-8"?>
<svg id="Laag_1" data-name="Laag 1" xmlns="http://www.w3.org/2000/svg" viewBox="0 0 128 128">
  <defs>
    <style>
      .cls-1 {
        fill: #f9e2cd;
      }

      .cls-1, .cls-2 {
        stroke-width: 0px;
      }

      .cls-2 {
        fill: #f29840;
      }
    </style>
  </defs>
  <rect class="cls-1" width="128" height="128" rx="25.71" ry="25.71"/>
  <g id="Laag_1-2" data-name="Laag 1-2">
    <path class="cls-2" d="M42.33,63.98c-.13,13.92-20.08,20.27-30.02,26.46,26.03-13.48,68.44-26.46,103.39-26.46-34.92,0-77.29-12.94-103.33-26.42,9.96,6.18,29.84,12.53,29.97,26.42ZM72.42,63.66c.6,0,1.08.49,1.08,1.08s-.49,1.08-1.08,1.08-1.08-.49-1.08-1.08.49-1.08,1.08-1.08ZM60.89,58.66c.95,0,1.73.78,1.73,1.73s-.78,1.73-1.73,1.73-1.73-.78-1.73-1.73.78-1.73,1.73-1.73ZM50.64,63.37c1.62,0,2.94,1.32,2.94,2.94s-1.32,2.94-2.94,2.94-2.94-1.32-2.94-2.94,1.32-2.94,2.94-2.94Z"/>
  </g>
</svg>