<?xml version="1.0" encoding="utf-8"?>
<!-- Generator: Adobe Illustrator 28.1.0, SVG Export Plug-In . SVG Version: 6.00 Build 0)  -->
<svg version="1.1" id="Laag_1" xmlns="http://www.w3.org/2000/svg" xmlns:xlink="http://www.w3.org/1999/xlink" x="0px" y="0px"
	 viewBox="0 0 1024 1024" style="enable-background:new 0 0 1024 1024;" xml:space="preserve">
<style type="text/css">
	.st0{fill:#020203;}
	.st1{fill:#FFFFFF;}
	.st2{fill:#010202;}
</style>
<path class="st0" d="M1024,512v512H0V512h63.8c141.2,0,297.5,26.2,444.9,66c147.3,39.8,285.6,93.3,390.8,147.8
	c-80.3-50-241.6-101.3-242.7-213.8H1024z"/>
<path class="st1" d="M63.8,512"/>
<path class="st1" d="M217.3,643.5"/>
<path class="st2" d="M63.8,512c282.5,0,625.3-104.8,835.7-213.8c-80.4,50-241.6,101.3-242.7,213.8"/>
<path class="st2" d="M899.5,298.2C617.1,298.2,274.3,403,63.8,512c80.4-50,241.6-101.3,242.7-213.8"/>
<rect class="st0" width="1024" height="298.2"/>
<path class="st1" d="M899.5,298.2c-282.5,0-625.3-104.8-835.7-213.8c80.4,50,241.6,101.3,242.7,213.8"/>
</svg>
