<?xml version="1.0" encoding="UTF-8"?>
<svg id="Layer_1" xmlns="http://www.w3.org/2000/svg" viewBox="0 0 1024.71 1024.71">
  <defs>
    <style>
      .cls-1 {
        fill: #37f;
      }

      .cls-2 {
        stroke-linecap: round;
        stroke-miterlimit: 10;
        stroke-width: 107.6px;
      }

      .cls-2, .cls-3 {
        fill: none;
        stroke: #fff;
      }
    </style>
  </defs>
  <rect class="cls-1" x=".35" y=".35" width="1024" height="1024"/>
  <g>
    <path class="cls-3" d="M.35,703.35h1024"/>
    <path class="cls-3" d="M.35,512.35h1024"/>
    <path class="cls-3" d="M.35,321.35h1024"/>
    <path class="cls-3" d="M703.35,1024.35V.35"/>
    <path class="cls-3" d="M512.35,1024.35V.35"/>
    <path class="cls-3" d="M321.35,1024.35V.35"/>
    <path class="cls-3" d="M1024.35,1024.35L.35.35"/>
    <path class="cls-3" d="M.35,1024.35L1024.35.35"/>
    <rect class="cls-3" x="67.35" y="67.35" width="890" height="890"/>
    <circle class="cls-3" cx="512.35" cy="512.35" r="191"/>
    <circle class="cls-3" cx="512.35" cy="512.35" r="269"/>
    <circle class="cls-3" cx="512.35" cy="512.35" r="445"/>
  </g>
  <g id="Light">
    <path id="Brandmark" class="cls-2" d="M512.35,727.55v-107.6c0-59.44,48.16-107.6,107.6-107.6h0c59.44,0,107.6,48.16,107.6,107.6h0c0,59.44-48.16,107.6-107.6,107.6h-107.6c-118.85,0-215.2-96.35-215.2-215.2h0c0-118.85,96.35-215.2,215.2-215.2h215.2"/>
  </g>
</svg>