<?xml version="1.0" encoding="UTF-8"?>
<svg id="Layer_2" xmlns="http://www.w3.org/2000/svg" viewBox="0 0 1600 400">
  <defs>
    <style>
      .cls-1 {
        stroke-width: 18px;
      }

      .cls-1, .cls-2 {
        fill: none;
        stroke: #3f3836;
        stroke-linejoin: round;
      }

      .cls-2 {
        stroke-width: 4.66px;
      }

      .cls-3 {
        fill: #fffce8;
        stroke-width: 0px;
      }
    </style>
  </defs>
  <g id="Layer_5">
    <rect class="cls-3" width="1600" height="400"/>
    <path class="cls-1" d="M639.7,352.16l-64.04-.02c-.11,0-.22,0-.33-.01-46.22-1.88-85.28-19.27-112.96-50.3-24.65-27.64-38.23-64.16-38.23-102.83,0-38.67,13.58-75.19,38.23-102.83,27.72-31.07,66.84-48.46,113.15-50.3l1.11-.02h125c15.55,0,28.15,12.6,28.15,28.15s-12.6,28.15-28.15,28.15h-124.42c-66.84,2.89-96.77,50.67-96.77,96.84,0,38.94,21.28,79.02,68.03,92.36v-29.86c0-49.99,40.67-90.65,90.65-90.65l1.11.02c27.06,1.07,50.06,11.38,66.53,29.84,14.63,16.4,22.69,37.99,22.69,60.79,0,43.29-30.64,88.32-89.21,90.64l-.56.02ZM604.8,295.86h33.73c32.96-1.58,34.63-28.87,34.63-34.35,0-5.48-1.68-32.73-34.54-34.34-18.7.28-33.82,15.58-33.82,34.34v34.35Z"/>
    <g>
      <path class="cls-2" d="M806.99,312.29c-.08-1.1-.31-2.06-.68-2.9-.37-.84-.9-1.55-1.58-2.14s-1.53-1.03-2.53-1.33c-1-.3-2.18-.45-3.52-.45-2.9,0-5.54.69-7.91,2.08s-4.37,3.38-5.97,5.99-2.7,5.75-3.3,9.44c-.62,3.72-.67,6.91-.16,9.56.52,2.65,1.64,4.68,3.37,6.08,1.73,1.41,4.07,2.11,7.03,2.11,2.65,0,4.93-.38,6.86-1.15,1.92-.77,3.47-1.85,4.62-3.26,1.16-1.41,1.83-2.75,2.12-4.66h3.03-14.53l1.99-12.29h28.18l-1.43,8.81c-.95,5.79-3,10.74-6.13,14.85-3.14,4.11-7.03,7.25-11.69,9.44-4.66,2.18-9.77,3.28-15.33,3.28-6.17,0-11.37-1.31-15.61-3.94s-7.27-6.37-9.08-11.24c-1.81-4.86-2.17-10.64-1.07-17.35.87-5.26,2.45-9.91,4.73-13.97,2.29-4.05,5.08-7.48,8.4-10.29,3.31-2.8,6.96-4.92,10.96-6.36,3.99-1.44,8.13-2.16,12.41-2.16,3.75,0,7.15.53,10.21,1.6,3.06,1.07,5.68,2.58,7.85,4.53s3.8,4.27,4.89,6.94c1.09,2.67,1.53,5.6,1.32,8.78h-17.44Z"/>
      <path class="cls-2" d="M872.33,291.31h17.26l-6.77,40.72c-.79,4.84-2.62,9.03-5.51,12.55-2.89,3.53-6.55,6.25-11,8.16-4.45,1.91-9.39,2.87-14.83,2.87s-10.12-.96-13.9-2.87-6.53-4.64-8.24-8.16-2.17-7.71-1.38-12.55l6.77-40.72h17.26l-6.52,39.23c-.31,1.97-.15,3.71.47,5.24.62,1.53,1.62,2.74,3.01,3.62,1.39.88,3.06,1.32,5.03,1.32s3.82-.44,5.51-1.32c1.69-.88,3.09-2.08,4.2-3.62,1.12-1.53,1.83-3.28,2.14-5.24l6.52-39.23Z"/>
      <path class="cls-2" d="M933.38,291.31h17.26l-6.77,40.72c-.79,4.84-2.62,9.03-5.51,12.55-2.89,3.53-6.55,6.25-11,8.16s-9.39,2.87-14.83,2.87-10.12-.96-13.9-2.87-6.53-4.64-8.24-8.16-2.17-7.71-1.38-12.55l6.77-40.72h17.26l-6.52,39.23c-.31,1.97-.15,3.71.47,5.24.62,1.53,1.62,2.74,3.01,3.62,1.39.88,3.06,1.32,5.03,1.32s3.82-.44,5.51-1.32c1.69-.88,3.09-2.08,4.2-3.62,1.12-1.53,1.83-3.28,2.14-5.24l6.52-39.23Z"/>
      <path class="cls-2" d="M987.73,311.17c.19-2.05-.31-3.66-1.49-4.83-1.18-1.17-3.16-1.75-5.96-1.75-1.78,0-3.26.21-4.45.62-1.19.41-2.11.98-2.76,1.71-.65.72-1.06,1.56-1.23,2.51-.19.74-.17,1.42.05,2.03.22.61.64,1.16,1.27,1.66.63.5,1.47.94,2.51,1.33,1.04.39,2.29.74,3.74,1.05l4.97,1.12c3.39.75,6.24,1.72,8.55,2.93,2.31,1.21,4.12,2.64,5.45,4.3,1.32,1.65,2.2,3.51,2.62,5.55.42,2.05.43,4.28.01,6.7-.7,4.18-2.33,7.72-4.87,10.62-2.54,2.9-5.87,5.1-9.96,6.61s-8.84,2.27-14.21,2.27-10.17-.82-14.01-2.47c-3.84-1.64-6.61-4.17-8.32-7.57s-2.13-7.75-1.26-13.05h16.39c-.25,1.94-.04,3.58.62,4.9s1.73,2.33,3.2,3.01,3.3,1.02,5.49,1.02c1.86,0,3.46-.23,4.78-.68,1.32-.46,2.37-1.09,3.14-1.89.76-.81,1.23-1.73,1.4-2.76.17-.95,0-1.8-.5-2.54-.5-.75-1.4-1.42-2.7-2.02-1.3-.6-3.09-1.15-5.37-1.64l-6.08-1.37c-5.4-1.24-9.48-3.29-12.23-6.15s-3.72-6.77-2.92-11.73c.66-4.06,2.33-7.6,5.01-10.63,2.68-3.03,6.09-5.39,10.24-7.08,4.15-1.69,8.75-2.53,13.8-2.53s9.43.86,12.9,2.58c3.47,1.72,5.96,4.13,7.48,7.23,1.52,3.1,1.93,6.75,1.23,10.92h-16.51Z"/>
      <path class="cls-2" d="M1002.48,354.87l10.55-63.56h17.26l-8.19,49.66h25.7l-2.36,13.9h-42.95Z"/>
      <path class="cls-2" d="M1066.89,354.87h-18.62l31.53-63.56h23.59l10.43,63.56h-18.62l-6.21-46.06h-.5l-21.6,46.06ZM1078.65,329.8h13.16l1.74,12.91h-20.96l6.06-12.91Z"/>
      <path class="cls-2" d="M1117.89,354.87l10.55-63.56h27.56c4.84,0,8.81.65,11.9,1.96,3.09,1.3,5.29,3.15,6.58,5.52,1.29,2.38,1.67,5.18,1.13,8.41-.41,2.32-1.3,4.43-2.65,6.35-1.36,1.91-3.06,3.53-5.12,4.84-2.06,1.31-4.35,2.22-6.87,2.72l-.12.62c2.73.08,5.11.76,7.14,2.03s3.52,3.03,4.47,5.28c.95,2.25,1.18,4.86.68,7.84-.58,3.48-2,6.57-4.25,9.28-2.26,2.71-5.18,4.84-8.78,6.39-3.6,1.55-7.7,2.33-12.29,2.33h-29.92ZM1137.5,341.09h8.07c2.86,0,5.11-.55,6.75-1.65,1.65-1.1,2.62-2.7,2.93-4.81.25-1.49.13-2.75-.37-3.79-.5-1.03-1.33-1.82-2.51-2.36-1.18-.54-2.66-.81-4.44-.81h-8.32l-2.11,13.41ZM1141.47,317.01h7.08c1.49,0,2.86-.24,4.1-.71,1.24-.48,2.26-1.17,3.07-2.08.81-.91,1.31-2.01,1.52-3.29.31-1.99-.16-3.5-1.41-4.53s-2.93-1.55-5.04-1.55h-7.32l-1.99,12.17Z"/>
    </g>
  </g>
</svg>