<?xml version="1.0" encoding="UTF-8"?>
<svg id="Layer_2" xmlns="http://www.w3.org/2000/svg" viewBox="0 0 500 500">
  <defs>
    <style>
      .cls-1 {
        fill: none;
        stroke: #fffce8;
        stroke-linejoin: round;
        stroke-width: 18px;
      }

      .cls-2 {
        fill: #3f3836;
        stroke-width: 0px;
      }
    </style>
  </defs>
  <g id="Layer_5">
    <g>
      <rect class="cls-2" width="500" height="500"/>
      <path class="cls-1" d="M313.06,403.15l-64.04-.02c-.11,0-.22,0-.33-.01-46.22-1.88-85.28-19.27-112.96-50.3-24.65-27.64-38.23-64.16-38.23-102.83,0-38.67,13.58-75.19,38.23-102.83,27.72-31.07,66.84-48.46,113.15-50.3l1.11-.02h125c15.55,0,28.15,12.6,28.15,28.15s-12.6,28.15-28.15,28.15h-124.42c-66.84,2.89-96.77,50.67-96.77,96.84,0,38.94,21.28,79.02,68.03,92.36v-29.86c0-49.99,40.67-90.65,90.65-90.65l1.11.02c27.06,1.07,50.06,11.38,66.53,29.84,14.63,16.4,22.69,37.99,22.69,60.79,0,43.29-30.64,88.32-89.21,90.64l-.56.02ZM278.15,346.85h33.73c32.96-1.58,34.63-28.87,34.63-34.35,0-5.48-1.68-32.73-34.54-34.34-18.7.28-33.82,15.58-33.82,34.34v34.35Z"/>
    </g>
  </g>
</svg>