<?xml version="1.0" encoding="UTF-8"?>
<svg id="Laag_1" data-name="Laag 1" xmlns="http://www.w3.org/2000/svg" viewBox="0 0 500 500">
  <defs>
    <style>
      .cls-1 {
        fill: #1d1d1b;
      }

      .cls-1, .cls-2 {
        stroke-width: 0px;
      }

      .cls-2 {
        fill: #fff;
      }
    </style>
  </defs>
  <circle class="cls-1" cx="250" cy="250" r="250"/>
  <g>
    <path class="cls-2" d="M335.52,126.41c8.14,0,14.73,6.6,14.73,14.73v217.72c0,8.14-6.6,14.73-14.73,14.73h-171.05c-8.14,0-14.73-6.6-14.73-14.73v-217.72c0-8.14,6.6-14.73,14.73-14.73h171.05M335.52,96.41h-171.05c-24.66,0-44.73,20.07-44.73,44.73v217.72c0,24.66,20.07,44.73,44.73,44.73h171.05c24.66,0,44.73-20.07,44.73-44.73v-217.72c0-24.66-20.07-44.73-44.73-44.73h0Z"/>
    <path class="cls-2" d="M313.47,203.13h-126.93c-8.28,0-15-6.72-15-15s6.72-15,15-15h126.93c8.28,0,15,6.72,15,15s-6.72,15-15,15Z"/>
    <path class="cls-2" d="M267.91,259.6h-81.38c-8.28,0-15-6.72-15-15s6.72-15,15-15h81.38c8.28,0,15,6.72,15,15s-6.72,15-15,15Z"/>
    <path class="cls-2" d="M228.56,316.08h-42.03c-8.28,0-15-6.72-15-15s6.72-15,15-15h42.03c8.28,0,15,6.72,15,15s-6.72,15-15,15Z"/>
  </g>
</svg>