<?xml version="1.0" encoding="UTF-8"?>
<svg id="Laag_1" data-name="Laag 1" xmlns="http://www.w3.org/2000/svg" viewBox="0 0 500 500">
  <defs>
    <style>
      .cls-1 {
        fill: #000;
      }

      .cls-1, .cls-2 {
        stroke-width: 0px;
      }

      .cls-2 {
        fill: #fff;
      }
    </style>
  </defs>
  <circle class="cls-1" cx="250" cy="250" r="250"/>
  <path class="cls-2" d="M363.61,146.64c-24.9-27.35-58.95-44.74-95.34-49.12-1.18-.14-2.35-.27-3.53-.39-1.22-.12-2.44-.22-3.66-.31-3.2-.23-6.43-.38-9.66-.41h-.08c-.89-.02-1.8-.02-2.7,0h-.08c-3.23.03-6.46.17-9.66.41-1.22.09-2.44.19-3.66.31-1.18.11-2.35.24-3.53.39-36.39,4.38-70.43,21.77-95.34,49.12-25.79,28.32-39.98,65.03-39.98,103.36s14.2,75.03,39.98,103.36c26.54,29.14,63.45,46.97,102.51,49.81,3.2.24,6.43.38,9.65.41h.09c.46.01.9.01,1.36.01s.9,0,1.36-.01h.09c3.22-.03,6.45-.16,9.65-.41,1.82-.13,3.65-.3,5.47-.5,1.16-.13,2.31-.27,3.47-.42,35.72-4.72,69.07-21.99,93.57-48.89,25.79-28.33,39.98-65.04,39.98-103.36s-14.2-75.04-39.98-103.36ZM184.46,146.16c-2.66,5.14-5.11,10.6-7.35,16.36-2.38-1.78-4.69-3.67-6.93-5.64,4.51-3.93,9.28-7.51,14.28-10.72ZM149.29,320.95c-11.68-16.53-19.07-35.65-21.54-55.74h34.58c.76,14.36,2.64,28.28,5.6,41.6-6.57,4.22-12.79,8.94-18.65,14.14ZM162.34,234.8h-34.58c2.48-20.11,9.87-39.25,21.57-55.79,5.84,5.2,12.06,9.93,18.62,14.15-2.97,13.33-4.84,27.25-5.6,41.64ZM170.11,343.12c2.26-1.98,4.59-3.87,6.99-5.66,2.25,5.78,4.71,11.26,7.37,16.42-5.03-3.21-9.83-6.81-14.36-10.76ZM234.8,368.23c-11.96-7.78-23.12-24.22-30.91-46.04,9.87-4.06,20.29-6.81,30.91-8.16v54.2ZM234.8,283.45c-13.25,1.33-26.29,4.41-38.71,9.13-1.61-8.83-2.72-18.02-3.28-27.37h41.99v18.23ZM234.8,234.8h-41.99c.57-9.35,1.67-18.55,3.28-27.39,12.42,4.72,25.46,7.81,38.71,9.14v18.24ZM234.8,185.97c-10.62-1.35-21.04-4.09-30.91-8.17,7.79-21.81,18.95-38.24,30.91-46.02v54.18ZM350.68,179.02c11.7,16.54,19.09,35.68,21.57,55.79h-34.58c-.76-14.38-2.64-28.31-5.6-41.64,6.56-4.23,12.78-8.95,18.62-14.15ZM329.82,156.88c-2.24,1.97-4.55,3.85-6.93,5.64-2.24-5.76-4.69-11.22-7.35-16.36,5,3.21,9.77,6.79,14.28,10.72ZM265.2,131.79c11.96,7.77,23.12,24.2,30.91,46.02-9.87,4.07-20.29,6.82-30.91,8.17v-54.18ZM265.2,368.23v-54.2c10.62,1.35,21.04,4.09,30.91,8.16-7.79,21.81-18.95,38.25-30.91,46.04ZM303.91,292.58c-12.42-4.72-25.46-7.8-38.71-9.13v-18.23h41.99c-.57,9.35-1.67,18.54-3.28,27.37ZM265.2,234.8v-18.24c13.25-1.33,26.29-4.42,38.71-9.14,1.61,8.84,2.72,18.04,3.28,27.39h-41.99ZM315.53,353.89c2.66-5.16,5.12-10.64,7.37-16.42,2.39,1.78,4.73,3.68,6.99,5.66-4.53,3.95-9.33,7.55-14.36,10.76ZM350.71,320.95c-5.86-5.2-12.08-9.92-18.65-14.14,2.97-13.32,4.84-27.23,5.6-41.6h34.58c-2.47,20.09-9.86,39.2-21.54,55.74Z"/>
</svg>