<?xml version="1.0" encoding="UTF-8" standalone="no"?><!DOCTYPE svg PUBLIC "-//W3C//DTD SVG 1.1//EN" "http://www.w3.org/Graphics/SVG/1.1/DTD/svg11.dtd"><svg width="100%" height="100%" viewBox="0 0 2250 2250" version="1.1" xmlns="http://www.w3.org/2000/svg" xmlns:xlink="http://www.w3.org/1999/xlink" xml:space="preserve" xmlns:serif="http://www.serif.com/" style="fill-rule:evenodd;clip-rule:evenodd;stroke-linecap:round;stroke-linejoin:round;stroke-miterlimit:1.5;"><rect id="verify-D" x="0" y="0" width="2250" height="2250" style="fill:none;"/><g><circle cx="1125" cy="1125" r="1125"/><g><path d="M691.397,1347.75c-0,-27.627 -10.975,-54.122 -30.51,-73.657c-20.714,-20.715 -49.038,-49.039 -75.438,-75.438c-19.535,-19.535 -30.509,-46.03 -30.509,-73.657c-0,-27.627 10.974,-54.122 30.509,-73.657c26.4,-26.399 54.724,-54.723 75.438,-75.438c19.535,-19.535 30.51,-46.03 30.51,-73.657l-0,-106.685c-0,-27.626 10.974,-54.121 30.509,-73.657c19.536,-19.535 46.031,-30.509 73.657,-30.509l106.685,-0c27.627,-0 54.122,-10.975 73.657,-30.51c20.715,-20.714 49.039,-49.038 75.438,-75.438c19.535,-19.535 46.03,-30.509 73.657,-30.509c27.627,-0 54.122,10.974 73.657,30.509c26.399,26.4 54.723,54.724 75.438,75.438c19.535,19.535 46.03,30.51 73.657,30.51l106.685,-0c27.626,-0 54.121,10.974 73.657,30.509c19.535,19.536 30.509,46.031 30.509,73.657l0,106.685c0,27.627 10.975,54.122 30.51,73.657c20.714,20.715 49.038,49.039 75.438,75.438c19.535,19.535 30.509,46.03 30.509,73.657c0,27.627 -10.974,54.122 -30.509,73.657c-26.4,26.399 -54.724,54.723 -75.438,75.438c-19.535,19.535 -30.51,46.03 -30.51,73.657l0,106.685c0,27.626 -10.974,54.121 -30.509,73.657c-19.536,19.535 -46.031,30.509 -73.657,30.509l-106.685,0c-27.627,0 -54.122,10.975 -73.657,30.51c-20.715,20.714 -49.039,49.038 -75.438,75.438c-19.535,19.535 -46.03,30.509 -73.657,30.509c-27.627,0 -54.122,-10.974 -73.657,-30.509c-26.399,-26.4 -54.723,-54.724 -75.438,-75.438c-19.535,-19.535 -46.03,-30.51 -73.657,-30.51l-106.685,0c-27.626,0 -54.121,-10.974 -73.657,-30.509c-19.535,-19.536 -30.509,-46.031 -30.509,-73.657l-0,-106.685Z" style="fill:none;stroke:#fff;stroke-width:98.11px;"/><path d="M840.32,1234.02c-21.216,-16.821 -24.783,-47.703 -7.961,-68.918c16.822,-21.215 47.703,-24.782 68.918,-7.96c0,-0 130.125,103.177 130.125,103.177c83.908,-201.591 246.189,-343.517 320.912,-392.483c22.646,-14.84 53.079,-8.502 67.919,14.144c14.84,22.646 8.502,53.08 -14.144,67.92c-73.073,47.884 -240.95,196.334 -304.815,405.547c-4.737,15.516 -16.838,27.687 -32.326,32.513c-15.488,4.826 -32.361,1.683 -45.072,-8.396l-183.556,-145.544Z" style="fill:#fff;"/></g></g></svg>