<?xml version="1.0" encoding="UTF-8" standalone="no"?><!DOCTYPE svg PUBLIC "-//W3C//DTD SVG 1.1//EN" "http://www.w3.org/Graphics/SVG/1.1/DTD/svg11.dtd"><svg width="100%" height="100%" viewBox="0 0 2250 2250" version="1.1" xmlns="http://www.w3.org/2000/svg" xmlns:xlink="http://www.w3.org/1999/xlink" xml:space="preserve" xmlns:serif="http://www.serif.com/" style="fill-rule:evenodd;clip-rule:evenodd;stroke-linecap:round;stroke-linejoin:round;stroke-miterlimit:1.5;"><rect id="verify-L" x="0" y="0" width="2250" height="2250" style="fill:none;"/><g><circle cx="1125" cy="1125" r="1125" style="fill:#fff;"/><g><path d="M641.366,1368.48c-0,-27.627 -10.975,-54.122 -30.51,-73.657c-25.5,-25.499 -62.928,-62.928 -96.161,-96.161c-19.535,-19.535 -30.51,-46.03 -30.51,-73.657c-0,-27.627 10.975,-54.122 30.51,-73.657c33.233,-33.233 70.661,-70.662 96.161,-96.161c19.535,-19.535 30.51,-46.03 30.51,-73.657l-0,-135.993c-0,-27.626 10.974,-54.122 30.509,-73.657c19.535,-19.535 46.031,-30.509 73.657,-30.509l135.993,-0c27.627,-0 54.122,-10.975 73.657,-30.51c25.499,-25.5 62.928,-62.928 96.161,-96.161c19.535,-19.535 46.03,-30.51 73.657,-30.51c27.627,-0 54.122,10.975 73.657,30.51c33.233,33.233 70.662,70.661 96.161,96.161c19.535,19.535 46.03,30.51 73.657,30.51l135.993,-0c27.626,-0 54.122,10.974 73.657,30.509c19.535,19.535 30.509,46.031 30.509,73.657l0,135.993c0,27.627 10.975,54.122 30.51,73.657c25.5,25.499 62.928,62.928 96.161,96.161c19.535,19.535 30.51,46.03 30.51,73.657c0,27.627 -10.975,54.122 -30.51,73.657c-33.233,33.233 -70.661,70.662 -96.161,96.161c-19.535,19.535 -30.51,46.03 -30.51,73.657l0,135.993c0,27.626 -10.974,54.122 -30.509,73.657c-19.535,19.535 -46.031,30.509 -73.657,30.509l-135.993,0c-27.627,0 -54.122,10.975 -73.657,30.51c-25.499,25.5 -62.928,62.928 -96.161,96.161c-19.535,19.535 -46.03,30.51 -73.657,30.51c-27.627,0 -54.122,-10.975 -73.657,-30.51c-33.233,-33.233 -70.662,-70.661 -96.161,-96.161c-19.535,-19.535 -46.03,-30.51 -73.657,-30.51l-135.993,0c-27.626,0 -54.122,-10.974 -73.657,-30.509c-19.535,-19.535 -30.509,-46.031 -30.509,-73.657l-0,-135.993Z" style="fill:none;stroke:#000;stroke-width:109.43px;"/><path d="M807.472,1246.6c-23.663,-18.763 -27.642,-53.207 -8.879,-76.87c18.763,-23.663 53.207,-27.642 76.87,-8.879c0,-0 145.14,115.082 145.14,115.082c93.589,-224.851 274.594,-383.153 357.939,-437.769c25.259,-16.552 59.204,-9.483 75.757,15.776c16.552,25.259 9.483,59.204 -15.776,75.756c-81.505,53.41 -268.753,218.989 -339.987,452.341c-5.283,17.307 -18.78,30.882 -36.055,36.265c-17.276,5.383 -36.095,1.877 -50.274,-9.365l-204.735,-162.337Z"/></g></g></svg>