<?xml version="1.0" encoding="UTF-8"?>
<svg id="Laag_2" data-name="Laag 2" xmlns="http://www.w3.org/2000/svg" viewBox="0 0 188.99 96.66">
  <defs>
    <style>
      .cls-1 {
        fill: #f29840;
        stroke-width: 0px;
      }
    </style>
  </defs>
  <g id="Laag_1-2" data-name="Laag 1">
    <path class="cls-1" d="M134.11,48.36c.24-25.44,36.7-37.05,54.88-48.36C141.4,24.65,63.88,48.36,0,48.36c63.84,0,141.29,23.66,188.89,48.3-18.2-11.29-54.54-22.91-54.78-48.3ZM79.11,48.96c-1.09,0-1.98-.89-1.98-1.98s.89-1.98,1.98-1.98,1.98.89,1.98,1.98-.89,1.98-1.98,1.98ZM100.18,58.09c-1.74,0-3.16-1.42-3.16-3.17s1.42-3.16,3.16-3.16,3.17,1.42,3.17,3.16-1.42,3.17-3.17,3.17ZM118.92,49.49c-2.97,0-5.38-2.41-5.38-5.38s2.41-5.38,5.38-5.38,5.38,2.41,5.38,5.38-2.41,5.38-5.38,5.38Z"/>
  </g>
</svg>