<?xml version="1.0" encoding="UTF-8"?>
<svg id="Laag_1" data-name="Laag 1" xmlns="http://www.w3.org/2000/svg" viewBox="0 0 1432.63 241.62">
  <defs>
    <style>
      .cls-1 {
        fill: none;
        stroke: #f30;
        stroke-linejoin: round;
        stroke-width: 29px;
      }

      .cls-2 {
        stroke-width: 0px;
      }
    </style>
  </defs>
  <g>
    <path class="cls-1" d="M14.5,14.5h105.54c58.98,0,106.87,47.88,106.87,106.87v105.54h-105.54c-58.98,0-106.87-47.88-106.87-106.87V14.5h0Z"/>
    <path class="cls-1" d="M226.91,73.61h76.17c42.57,0,77.13,34.56,77.13,77.13v76.17h-76.17c-42.57,0-77.13-34.56-77.13-77.13v-76.17h0Z" transform="translate(453.81 -153.3) rotate(90)"/>
  </g>
  <g>
    <path class="cls-2" d="M486.27,241.62V88.52h-56.14v-29.49h150.26v29.49h-55.85v153.1h-38.27Z"/>
    <path class="cls-2" d="M601.38,241.62V59.04h130.98v29.77h-92.71v46.78h82.22v29.49h-82.22v47.06h92.71v29.49h-130.98Z"/>
    <path class="cls-2" d="M753.34,241.62l69.74-182.58h41.96l69.46,182.58h-39.69l-17.29-43.94h-67.19l-17.01,43.94h-39.97ZM815.99,168.19h55.85l-28.07-73.43-27.78,73.43Z"/>
    <path class="cls-2" d="M967.67,241.62V59.04h7.94v175.49h104.9v7.09h-112.84Z"/>
    <path class="cls-2" d="M1108.86,241.62l68.89-182.58h12.76l68.61,182.58h-7.94l-21.26-56.7h-91.57l-21.26,56.7h-8.22ZM1140.9,177.83h86.19l-43.09-114.26-43.09,114.26Z"/>
    <path class="cls-2" d="M1298.81,241.62V59.04h76.27c17.95,0,30.76,4.07,38.42,12.19,7.65,8.13,11.48,19.75,11.48,34.87,0,10.4-2.22,18.95-6.66,25.66-4.44,6.71-10.54,11.67-18.29,14.88,10.02,1.89,17.96,6.33,23.82,13.32,5.86,7,8.79,17.11,8.79,30.34,0,17.96-4.25,31-12.76,39.12-8.51,8.13-21.45,12.19-38.84,12.19h-82.22ZM1306.75,143.24h72.58c13.99,0,23.82-3.54,29.49-10.63,5.67-7.09,8.51-15.92,8.51-26.51,0-8.51-1.23-15.73-3.69-21.69-2.46-5.95-6.8-10.49-13.04-13.61s-15.22-4.68-26.93-4.68h-66.91v77.12ZM1306.75,234.53h75.42c14.74,0,25.56-3.4,32.46-10.21,6.9-6.8,10.35-18.15,10.35-34.02,0-12.85-3.36-22.73-10.06-29.63-6.71-6.9-19.23-10.35-37.57-10.35h-70.59v84.2Z"/>
  </g>
</svg>