<?xml version="1.0" encoding="UTF-8"?>
<svg id="Laag_1" data-name="Laag 1" xmlns="http://www.w3.org/2000/svg" viewBox="0 0 494.24 192.72">
  <defs>
    <style>
      .cls-1 {
        fill: #fff;
        stroke-width: 0px;
      }
    </style>
  </defs>
  <g>
    <path class="cls-1" d="M134.8,192.72H44.27c-56.9,0-60-81.44-3.2-84.59,1.72-.1,3.45-.14,5.2-.14,48.89,0,88.52,37.94,88.52,84.73Z"/>
    <path class="cls-1" d="M0,0h90.53c56.9,0,60,81.44,3.2,84.59-1.72.1-3.45.14-5.2.14C39.64,84.73,0,46.79,0,0Z"/>
  </g>
  <g>
    <path class="cls-1" d="M197.34,134.37c-4.73,0-9.14-.34-13.22-1.03-4.08-.69-7.61-1.68-10.59-2.98v-13.63c3.36,1.37,6.98,2.48,10.88,3.32,3.89.84,7.71,1.26,11.45,1.26,5.34,0,9.27-.5,11.79-1.49,2.52-.99,3.78-3.24,3.78-6.76,0-2.21-.53-3.97-1.6-5.27-1.07-1.3-2.92-2.46-5.55-3.49-2.63-1.03-6.35-2.19-11.16-3.49-7.71-2.14-13.13-4.81-16.26-8.01-3.13-3.21-4.69-7.63-4.69-13.28,0-6.79,2.48-12.02,7.44-15.69,4.96-3.66,12.17-5.5,21.64-5.5,4.43,0,8.55.31,12.37.92,3.82.61,6.91,1.34,9.27,2.18v13.63c-6.26-2.37-12.79-3.55-19.58-3.55-4.81,0-8.59.52-11.34,1.55-2.75,1.03-4.12,3.19-4.12,6.47,0,1.91.5,3.44,1.49,4.58.99,1.15,2.69,2.18,5.1,3.09,2.4.92,5.78,1.95,10.13,3.09,6.03,1.6,10.69,3.51,13.97,5.73,3.28,2.21,5.55,4.73,6.81,7.56,1.26,2.83,1.89,5.99,1.89,9.5,0,6.41-2.44,11.56-7.33,15.46-4.89,3.89-12.41,5.84-22.56,5.84Z"/>
    <path class="cls-1" d="M237.99,133.23V59.49h34.58c5.8,0,10.55,1.11,14.25,3.32,3.7,2.21,6.47,5.23,8.3,9.05,1.83,3.82,2.75,8.17,2.75,13.05s-1.05,9.35-3.15,13.17c-2.1,3.82-5.08,6.78-8.93,8.87-3.86,2.1-8.42,3.15-13.68,3.15h-18.66v23.13h-15.46ZM253.45,97.85h15.46c4.43,0,7.77-1.16,10.02-3.49,2.25-2.33,3.38-5.48,3.38-9.45,0-4.27-1.07-7.54-3.21-9.79-2.14-2.25-5.34-3.38-9.62-3.38h-16.03v26.11Z"/>
    <path class="cls-1" d="M295.01,133.23l28.17-73.74h16.95l28.05,73.74h-16.03l-6.98-17.75h-27.14l-6.87,17.75h-16.14ZM320.32,103.57h22.56l-11.34-29.66-11.22,29.66Z"/>
    <path class="cls-1" d="M408.6,134.37c-12.37,0-21.83-3.34-28.4-10.02-6.57-6.68-9.85-15.78-9.85-27.31,0-12.21,3.19-21.72,9.56-28.51,6.37-6.79,15.9-10.19,28.57-10.19,4.43,0,8.42.33,11.96.97,3.55.65,6.89,1.55,10.02,2.69v13.51c-6.49-2.67-13.44-4.01-20.84-4.01-8.4,0-14.43,2.1-18.09,6.3-3.66,4.2-5.5,10.61-5.5,19.24,0,16.18,7.94,24.27,23.82,24.27,3.59,0,7.14-.32,10.65-.97,3.51-.65,6.87-1.62,10.08-2.92v13.62c-3.13.99-6.47,1.79-10.02,2.4-3.55.61-7.54.92-11.96.92Z"/>
    <path class="cls-1" d="M441.34,133.23V59.49h52.9v12.02h-37.44v18.89h33.21v11.91h-33.21v19.01h37.44v11.91h-52.9Z"/>
  </g>
</svg>