<?xml version="1.0" encoding="UTF-8"?>
<svg id="Laag_1" data-name="Laag 1" xmlns="http://www.w3.org/2000/svg" viewBox="0 0 298.27 390.41">
  <defs>
    <style>
      .cls-1, .cls-2 {
        stroke-width: 0px;
      }

      .cls-2 {
        fill: #fff;
      }
    </style>
  </defs>
  <path class="cls-2" d="M149.35,0c41.01,0,82.02-.01,123.03,0,12.25,0,21.52,6.18,24.7,16.86.96,3.22,1.12,6.77,1.12,10.16.07,79.14.07,158.28.05,237.42,0,4.66.13,9.36-.49,13.96-1.32,9.77-6.45,17.8-13.55,24.23-8.74,7.92-17.76,15.62-27.28,22.57-23.64,17.26-47.56,34.14-71.54,50.92-5.38,3.77-11.35,6.78-17.27,9.68-12.85,6.29-25.78,6.05-38.69-.12-11.28-5.38-21.55-12.38-31.56-19.74-23.16-17.02-46.35-34.01-69.21-51.43-6.82-5.2-12.93-11.47-18.74-17.82C2.87,288.97,0,279.42,0,268.97.02,188.07.01,107.17,0,26.26c0-9.11,3.02-16.72,10.75-22.06C15.45.96,20.77.02,26.32.01,67.33,0,108.34,0,149.35,0ZM119.56,173.48c.04.19.09.38.13.58-6.42,4.94-12.84,9.88-19.27,14.81-21.67,16.65-43.34,33.31-65.03,49.94-3.74,2.87-6.55,6.38-7.96,10.93-2.66,8.6,1.56,15.95,10.36,17.67,6.76,1.32,12.4-1.37,17.5-5.56,14.05-11.52,28.1-23.03,42.15-34.53.76-.62,1.58-1.17,2.81-2.08,0,4.03-.38,7.42.07,10.7,2.06,15.06,8.61,28.1,19.1,38.97,20.47,21.19,45.81,29.28,74.71,26.06,20.55-2.29,38.37-10.95,52.52-26.25,15.44-16.71,22.42-36.49,19.36-59.21-2.57-19.09-11.7-34.95-26.74-46.82-25.32-19.99-51.06-39.46-76.67-59.09-5.33-4.08-12.98-4.21-18.63-.61-6.52,4.14-6.97,10.81-1.03,15.67,5.73,4.69,11.49,9.35,17.23,14.03,3.99,3.25,7.96,6.51,12.45,10.18-7.03,0-13.36,0-19.69,0-24.69,0-49.38-.02-74.07.04-6.65.02-12.27,2.45-16.06,8.1-4.11,6.14-1.65,13.19,5.39,15.5,2.13.7,4.48.99,6.74,1.01,13.93.07,27.87,0,41.8,0,.95,0,1.89,0,2.84,0ZM36.85,38.88c0-2.59,0-4.87,0-7.15q0-4.22-4.01-5.25c-1.28-.33-2.55-.67-3.83-.99-3.18-.79-3.31-.72-3.32,2.52-.02,11.46,0,22.91,0,34.37,0,7.96,0,8.01,7.97,7.81,1.28-.03,2.53-.8,3.8-1.24,9.9,4.14,20.39,2.76,26.12-4.19,5.11-6.2,5.31-15.64.46-22.08-5.52-7.34-15.76-8.86-27.19-3.8ZM196.02,39.07c-10.64-6.7-22.7-2.23-26.95,3.21-4.97,6.37-4.97,15.9.02,22.34,4.29,5.54,16.22,9.87,25.78,3.99,1.67.68,2.8,1.4,4.01,1.58,1.64.24,3.35-.07,5.01.09,2.45.23,3.14-.76,3.12-3.17-.1-13.04-.05-26.08-.06-39.12,0-.94-.09-1.88-.16-3.22-3.12.8-5.89,1.61-8.7,2.2-1.66.34-2.12,1.23-2.09,2.77.06,2.98.02,5.96.02,9.33ZM94.97,56.05c.93,0,1.86,0,2.8,0,7.66,0,15.33-.01,22.99,0,1.34,0,2.5-.06,2.44-1.89-.23-7.1-2.48-14.84-11.65-17.95-5.46-1.85-11.1-1.86-16.63-.25-8.06,2.34-12.69,8.73-12.65,17.11.05,8.28,4.66,14.64,12.47,17.03,4.72,1.44,9.51,1.61,14.32.42,4.19-1.03,7.85-2.88,10.76-6.72-2.8-1.63-5.32-3.17-7.95-4.54-.4-.21-1.48.25-1.83.71-1.66,2.22-3.91,3.2-6.57,3.44-4.88.45-8.6-2.62-8.52-7.38ZM221.69,56.04c.94,0,1.89,0,2.84,0,7.58,0,15.16,0,22.74,0,1.25,0,2.46.15,2.51-1.78.17-6.85-2.58-15.47-12.2-18.26-5.46-1.58-10.94-1.62-16.37.07-7.3,2.28-11.87,8.15-12.03,15.32-.22,9.46,3.4,15.49,11.21,18.33,5.09,1.85,10.3,2.08,15.58.73,4.1-1.05,7.67-2.87,10.56-6.64-3.07-1.79-5.9-3.44-8.67-5.06-4.13,4.4-8.06,5.63-12.07,3.95-2.73-1.14-4.1-3.29-4.08-6.67ZM136.75,39.98c-1.03-.57-1.65-1.19-2.3-1.22-2.55-.11-5.12-.16-7.66.04-.61.05-1.63,1.1-1.64,1.7-.11,9.26-.11,18.53,0,27.79,0,.65,1.14,1.77,1.84,1.84,2.27.24,4.58.06,6.87.11,1.59.04,2.16-.65,2.14-2.23-.06-4.59-.07-9.18,0-13.76.02-1.48.19-3.01.61-4.42,1.19-4.03,4.91-5.97,10.22-5.52,3.55.3,4.73,1.71,5.34,6.55.19,1.48.3,2.98.31,4.48.04,4.23.06,8.47,0,12.7-.03,1.6.6,2.24,2.17,2.2,2.2-.05,4.41-.04,6.61,0,1.58.03,2.19-.69,2.18-2.25-.05-6.62.15-13.24-.11-19.85-.31-7.74-3.85-11.36-11.56-12.68-5.94-1.01-10.91.92-15.02,4.51ZM275.68,44.42c0-2.84.14-5.22-.09-7.57-.06-.65-1.17-1.62-1.9-1.73-3.53-.51-6.55.79-9.18,3.12-.47.42-1.14.88-1.7.87-2.97-.05-5.93-.22-8.89-.42-1.61-.11-2.22.61-2.22,2.15.02,9.08.02,18.16,0,27.24,0,1.57.76,2.21,2.29,2.17,1.94-.05,3.88-.12,5.81.03,2.31.17,3.12-.76,3.07-3.06-.1-4.67-.1-9.35.07-14.01.2-5.29,3.7-8.61,8.98-8.78,1.12-.04,2.25,0,3.75,0ZM69.47,48.67v13.75c0,7.97,0,7.89,7.92,7.88,2.28,0,3.06-.67,3.04-3.02-.11-10.66-.05-21.33-.05-32,0-8.32,0-8.26-8.32-8-2.11.07-2.67.89-2.64,2.88.1,6.17.04,12.34.04,18.51Z"/>
  <path class="cls-1" d="M119.56,173.48c-.95,0-1.89,0-2.84,0-13.93.02-27.87.08-41.8,0-2.25-.01-4.61-.31-6.74-1.01-7.05-2.3-9.5-9.36-5.39-15.5,3.79-5.65,9.41-8.08,16.06-8.1,24.69-.06,49.38-.03,74.07-.04,6.33,0,12.66,0,19.69,0-4.48-3.67-8.46-6.93-12.45-10.18-5.74-4.68-11.5-9.33-17.23-14.03-5.94-4.86-5.49-11.52,1.03-15.67,5.65-3.59,13.3-3.47,18.63.61,25.61,19.63,51.35,39.1,76.67,59.09,15.04,11.88,24.17,27.74,26.74,46.82,3.06,22.72-3.92,42.5-19.36,59.21-14.15,15.3-31.97,23.96-52.52,26.25-28.9,3.23-54.25-4.86-74.71-26.06-10.49-10.86-17.04-23.9-19.1-38.97-.45-3.28-.07-6.68-.07-10.7-1.23.91-2.05,1.46-2.81,2.08-14.06,11.5-28.11,23.01-42.15,34.53-5.1,4.18-10.74,6.88-17.5,5.56-8.8-1.72-13.01-9.07-10.36-17.67,1.4-4.54,4.22-8.06,7.96-10.93,21.68-16.64,43.35-33.29,65.03-49.94,6.42-4.94,12.85-9.88,19.27-14.81-.04-.19-.09-.38-.13-.58ZM178.78,264.81c14.98,0,24.86-2.87,33.67-8.58,24.79-16.06,28.14-48.76,7.05-68.79-19.77-18.77-53.08-18.77-72.84,0-16.7,15.87-18.81,40.49-4.77,58.12,10.47,13.14,24.53,18.94,36.88,19.25Z"/>
  <path class="cls-1" d="M36.85,38.88c11.43-5.05,21.67-3.53,27.19,3.8,4.85,6.44,4.65,15.89-.46,22.08-5.73,6.95-16.22,8.32-26.12,4.19-1.27.43-2.52,1.2-3.8,1.24-7.97.2-7.97.14-7.97-7.81,0-11.46,0-22.91,0-34.37,0-3.24.13-3.31,3.32-2.52,1.28.32,2.55.66,3.83.99q4,1.03,4.01,5.25c0,2.28,0,4.56,0,7.15ZM46.32,62.66c5.85-.01,9.38-3.4,9.4-9.03.02-5.79-3.53-9.25-9.48-9.25-5.83,0-9.33,3.4-9.36,9.06-.03,5.88,3.4,9.23,9.44,9.22Z"/>
  <path class="cls-1" d="M196.02,39.07c0-3.37.04-6.35-.02-9.33-.03-1.54.43-2.43,2.09-2.77,2.81-.58,5.58-1.4,8.7-2.2.07,1.34.16,2.28.16,3.22,0,13.04-.05,26.08.06,39.12.02,2.41-.67,3.4-3.12,3.17-1.66-.15-3.37.15-5.01-.09-1.21-.18-2.34-.89-4.01-1.58-9.56,5.88-21.48,1.55-25.78-3.99-4.99-6.45-5-15.98-.02-22.34,4.25-5.44,16.32-9.9,26.95-3.21ZM186.61,62.66c5.88,0,9.37-3.36,9.39-9.03.02-5.82-3.5-9.26-9.46-9.25-5.94,0-9.38,3.44-9.35,9.33.03,5.7,3.45,8.95,9.42,8.95Z"/>
  <path class="cls-1" d="M94.97,56.05c-.08,4.76,3.64,7.83,8.52,7.38,2.66-.24,4.9-1.22,6.57-3.44.35-.46,1.43-.92,1.83-.71,2.62,1.37,5.15,2.91,7.95,4.54-2.91,3.85-6.57,5.7-10.76,6.72-4.82,1.18-9.61,1.02-14.32-.42-7.82-2.39-12.43-8.75-12.47-17.03-.05-8.38,4.58-14.77,12.65-17.11,5.53-1.61,11.17-1.6,16.63.25,9.16,3.11,11.41,10.84,11.65,17.95.06,1.83-1.1,1.89-2.44,1.89-7.66-.01-15.33,0-22.99,0-.94,0-1.87,0-2.8,0ZM110.75,48.19c-1.01-4.05-4.25-6.19-8.29-5.84-4.25.37-6.67,2.31-7.03,5.84h15.31Z"/>
  <path class="cls-1" d="M221.69,56.04c-.02,3.38,1.35,5.52,4.08,6.67,4.01,1.68,7.94.44,12.07-3.95,2.77,1.62,5.61,3.27,8.67,5.06-2.89,3.77-6.46,5.59-10.56,6.64-5.28,1.35-10.49,1.12-15.58-.73-7.81-2.84-11.43-8.86-11.21-18.33.17-7.17,4.73-13.04,12.03-15.32,5.43-1.69,10.92-1.66,16.37-.07,9.62,2.79,12.37,11.41,12.2,18.26-.05,1.93-1.27,1.78-2.51,1.78-7.58,0-15.16,0-22.74,0-.95,0-1.89,0-2.84,0ZM237.35,48.19c-.69-3.79-3.58-5.91-7.73-5.87-4.17.04-7.01,2.15-7.63,5.87h15.36Z"/>
  <path class="cls-1" d="M136.75,39.98c4.12-3.59,9.09-5.52,15.02-4.51,7.71,1.32,11.25,4.94,11.56,12.68.26,6.61.06,13.23.11,19.85.01,1.55-.6,2.28-2.18,2.25-2.2-.04-4.41-.05-6.61,0-1.57.04-2.19-.61-2.17-2.2.07-4.23.05-8.47,0-12.7-.02-1.49-.13-3-.31-4.48-.61-4.84-1.78-6.25-5.34-6.55-5.32-.45-9.03,1.5-10.22,5.52-.42,1.41-.59,2.94-.61,4.42-.08,4.59-.07,9.18,0,13.76.02,1.58-.55,2.26-2.14,2.23-2.29-.05-4.6.13-6.87-.11-.7-.07-1.83-1.19-1.84-1.84-.12-9.26-.11-18.53,0-27.79,0-.6,1.03-1.65,1.64-1.7,2.54-.2,5.11-.15,7.66-.04.65.03,1.27.65,2.3,1.22Z"/>
  <path class="cls-1" d="M275.68,44.42c-1.5,0-2.63-.03-3.75,0-5.28.18-8.79,3.5-8.98,8.78-.17,4.67-.17,9.34-.07,14.01.05,2.3-.76,3.22-3.07,3.06-1.93-.14-3.88-.07-5.81-.03-1.53.04-2.29-.6-2.29-2.17,0-9.08.01-18.16,0-27.24,0-1.54.6-2.26,2.22-2.15,2.96.2,5.93.36,8.89.42.57.01,1.23-.46,1.7-.87,2.64-2.33,5.65-3.63,9.18-3.12.73.1,1.83,1.07,1.9,1.73.23,2.35.09,4.73.09,7.57Z"/>
  <path class="cls-1" d="M69.48,48.67c0-6.17.06-12.34-.04-18.51-.03-1.99.52-2.82,2.64-2.88,8.32-.26,8.32-.32,8.32,8,0,10.67-.06,21.33.05,32,.02,2.35-.76,3.02-3.04,3.02-7.92.02-7.92.09-7.92-7.88,0-4.58,0-9.17,0-13.75Z"/>
  <path class="cls-2" d="M178.78,264.81c-12.35-.3-26.41-6.11-36.88-19.25-14.04-17.63-11.94-42.24,4.77-58.12,19.76-18.77,53.07-18.78,72.84,0,21.09,20.02,17.73,52.73-7.05,68.79-8.81,5.71-18.69,8.59-33.67,8.58ZM184.16,247.25c7.21-.02,13.05-1.68,18.77-5.34,16.87-10.81,18.58-33.05,3.53-45.91-12.37-10.57-31.87-10.68-44.37-.25-13.21,11.02-14.36,29.3-2.42,41.56,6.65,6.83,14.95,10.03,24.49,9.95Z"/>
  <path class="cls-2" d="M46.32,62.66c-6.03.01-9.46-3.34-9.44-9.22.03-5.66,3.53-9.06,9.36-9.06,5.95,0,9.49,3.46,9.48,9.25-.02,5.63-3.55,9.02-9.4,9.03Z"/>
  <path class="cls-2" d="M186.61,62.66c-5.97,0-9.39-3.24-9.42-8.95-.03-5.89,3.41-9.33,9.35-9.33,5.96,0,9.48,3.43,9.46,9.25-.02,5.67-3.5,9.02-9.39,9.03Z"/>
  <path class="cls-2" d="M110.75,48.19h-15.31c.36-3.53,2.77-5.47,7.03-5.84,4.04-.35,7.28,1.78,8.29,5.84Z"/>
  <path class="cls-2" d="M237.35,48.19h-15.36c.62-3.72,3.45-5.83,7.63-5.87,4.15-.04,7.04,2.08,7.73,5.87Z"/>
  <path class="cls-1" d="M184.16,247.25c-9.54.08-17.84-3.12-24.49-9.95-11.94-12.25-10.79-30.53,2.42-41.56,12.5-10.43,32-10.32,44.37.25,15.05,12.86,13.34,35.1-3.53,45.91-5.72,3.67-11.56,5.32-18.77,5.34Z"/>
</svg>