<?xml version="1.0" encoding="UTF-8"?>
<svg id="Laag_1" data-name="Laag 1" xmlns="http://www.w3.org/2000/svg" viewBox="0 0 303.72 272.48">
  <defs>
    <style>
      .cls-1 {
        fill: #fff;
        stroke-width: 0px;
      }
    </style>
  </defs>
  <path class="cls-1" d="M168.97,133.16c5.09-.62,9.94-1.45,14.65-2.96,6.36-2.04,12.11-5.1,16.75-10.01,3.95-4.18,6.57-9.1,8.22-14.57,1.45-4.8,2.14-9.71,2.31-14.71.11-3.38.09-6.75-.49-10.1-1.1-6.39-3.78-12.01-7.94-16.96-.28-.33-.56-.66-.86-1,.4-1.54.87-3.07,1.18-4.62,1.02-5.1.69-10.17-.63-15.18-.34-1.29-.82-2.55-1.2-3.83-.23-.78-.68-1.07-1.5-1.11-2.68-.12-5.26.4-7.78,1.2-4.78,1.5-9.15,3.86-13.39,6.49-.85.52-1.68,1.07-2.51,1.63-.39.26-.74.3-1.21.2-3.42-.74-6.83-1.59-10.28-2.1-5.4-.79-10.85-1.08-16.33-.77-4.94.28-9.83.88-14.65,1.94-1.1.24-2.2.47-3.27.82-.74.25-1.3.11-1.92-.31-2.98-2.01-6.09-3.81-9.33-5.37-3.52-1.69-7.15-3.08-11.05-3.58-1.07-.14-2.16-.1-3.24-.12-.59-.01-.92.3-1.13.87-1.93,5.23-2.9,10.58-2.35,16.17.22,2.3.63,4.55,1.43,6.71.25.68.1,1.11-.34,1.61-3.94,4.48-6.54,9.65-7.9,15.45-1.01,4.3-1.08,8.67-.83,13.05.24,4.33.84,8.61,2.04,12.8,2.01,7.04,5.5,13.15,11.14,17.93,4.09,3.46,8.8,5.78,13.87,7.42,4.63,1.5,9.39,2.36,14.21,2.92.12.01.25.05.47.1-.09.17-.14.32-.24.43-2.86,2.86-4.39,6.38-5.15,10.29-.34,1.77-.33,1.77-2.01,2.4-2.9,1.1-5.91,1.76-9,1.73-5.39-.06-9.94-2.13-13.47-6.23-1.04-1.21-1.93-2.55-2.82-3.88-2.28-3.4-4.97-6.32-8.7-8.18-2.38-1.18-4.89-1.39-7.47-1.07-.79.1-1.72.23-2.05,1.14-.33.9.22,1.62.83,2.18.9.81,1.83,1.61,2.85,2.23,1.43.87,2.68,1.91,3.74,3.19,2.65,3.23,4.87,6.73,6.41,10.63,2.09,5.3,6,8.58,11.35,10.21,3.72,1.14,7.56,1.45,11.43,1.15,2.41-.19,4.81-.54,7.22-.82.26-.03.51-.03.86-.04.02.41.06.79.06,1.17.03,4.51.05,9.01.08,13.52,0,.95.06,1.9,0,2.85-.18,2.85-2.42,4.47-5.36,4.13-1.43-.17-2.85-.71-4.21-1.23-16.07-6.12-29.51-15.87-40.19-29.37-8.94-11.3-14.88-24.01-17.86-38.1-1.8-8.52-2.34-17.14-1.71-25.84.82-11.35,3.63-22.17,8.46-32.48,4.36-9.3,10.12-17.62,17.26-25.01,7.85-8.12,16.88-14.6,27.09-19.42,7.9-3.73,16.18-6.28,24.83-7.62,5.62-.87,11.27-1.28,16.96-1.13,12.57.35,24.6,3.06,36.04,8.32,15.09,6.94,27.45,17.2,37.08,30.73,6.73,9.45,11.46,19.82,14.25,31.09,1.45,5.86,2.29,11.8,2.59,17.83.64,13.21-1.45,25.97-6.29,38.27-5.43,13.79-13.73,25.58-24.8,35.42-9.04,8.04-19.29,14.02-30.7,18.06-1.19.42-2.4.74-3.69.48-2.42-.48-3.78-2.06-3.79-4.54-.01-3.38.02-6.76.02-10.14,0-5.59.08-11.18,0-16.77-.07-4.63-1.13-9.02-3.8-12.89-.63-.91-1.4-1.73-2.22-2.74Z"/>
  <path class="cls-1" d="M42.87,255.72v-15.46c-.51-.02-.97-.04-1.42-.04-2.64,0-5.29,0-7.93,0-1.31,0-1.75-.39-1.76-1.67-.03-3.86-.03-7.71,0-11.57,0-1.25.42-1.64,1.64-1.64,8.28,0,16.56,0,24.84,0,1.15,0,1.46.34,1.51,1.46,0,.17,0,.35,0,.52,0,12.48-.01,24.96.02,37.44,0,1.1-.35,1.74-1.29,2.28-3.91,2.23-8.1,3.72-12.51,4.54-7.6,1.41-15.17,1.18-22.67-.7-4.56-1.14-8.68-3.17-12.22-6.31-3.96-3.51-6.54-7.91-8.26-12.86-1.63-4.7-2.36-9.57-2.66-14.51-.27-4.51-.17-9,.26-13.49.57-5.94,1.78-11.72,4.39-17.14,3.66-7.6,9.53-12.63,17.66-14.97,5.36-1.54,10.84-1.69,16.36-1.43,3.68.18,7.34.52,10.92,1.44,1.63.42,3.21,1.01,4.8,1.56.4.14.79.36,1.16.58.93.57,1.06.87.81,1.93-.6,2.57-1.21,5.14-1.82,7.7-.29,1.22-.57,2.44-.88,3.66-.31,1.21-.82,1.54-1.98,1.11-5.48-1.99-11.17-2.25-16.91-2.01-3.28.14-6.43.89-9.25,2.66-3.52,2.21-5.52,5.53-6.78,9.38-.83,2.52-1.28,5.12-1.52,7.76-.44,4.89-.35,9.77.48,14.63.57,3.35,1.52,6.57,3.4,9.46,2.55,3.91,6.22,5.88,10.79,6.33,3.12.31,6.23.09,9.33-.29.47-.06.92-.2,1.5-.33Z"/>
  <path class="cls-1" d="M150.93,221.96h22.27c0-.57,0-1.07,0-1.58,0-8.28-.02-16.56-.02-24.83,0-.35-.02-.7,0-1.04.09-1.01.47-1.41,1.47-1.42,4.68-.02,9.36-.02,14.05,0,.95,0,1.28.39,1.34,1.37.02.35,0,.69,0,1.04,0,24.31,0,48.63,0,72.94,0,2.29-.14,2.43-2.43,2.43-4.16,0-8.32,0-12.49,0-1.64,0-1.96-.33-1.96-1.97,0-10.01,0-20.02,0-30.03v-1.36h-22.16c-.03.5-.08,1-.08,1.5,0,9.79,0,19.59,0,29.38,0,2.37-.12,2.49-2.49,2.49-4.08,0-8.15,0-12.23,0-1.88,0-2.1-.22-2.1-2.08,0-17.64,0-35.28,0-52.92,0-6.89,0-13.78,0-20.67,0-.35-.03-.7.02-1.04.08-.63.45-1.02,1.1-1.07.3-.02.61-.01.91-.01,4.25,0,8.5,0,12.75,0,1.8,0,2.04.23,2.04,2,0,8.41,0,16.82,0,25.22v1.65Z"/>
  <path class="cls-1" d="M269.96,219.63c1.15-.53,2.08-1,3.03-1.39,4.8-1.97,9.77-2.57,14.89-1.75,6.18.99,10.48,4.44,13.04,10.11,1.5,3.31,2.18,6.83,2.53,10.42.41,4.19.31,8.39-.03,12.58-.38,4.54-1.12,9.02-3.11,13.19-2.45,5.14-6.49,8.18-12.12,9.13-5.69.96-11.22.43-16.53-1.82-1.62-.69-3.11-1.68-4.65-2.55-.29-.16-.57-.36-.94-.6-.14.88-.23,1.64-.38,2.4-.24,1.22-.59,1.5-1.85,1.51-2.99,0-5.98.01-8.97,0-1.31,0-1.7-.4-1.75-1.68-.01-.3,0-.61,0-.91,0-24.22,0-48.44,0-72.66,0-2.46.07-2.53,2.57-2.53,4.16,0,8.32,0,12.48,0,1.59,0,1.81.22,1.81,1.8,0,7.71,0,15.42,0,23.14,0,.47,0,.94,0,1.6ZM269.69,256.24c3.73,2.02,7.59,2.85,11.71,2.11,1.7-.31,3.07-1.22,3.84-2.8.44-.88.81-1.83,1.02-2.79.83-3.83.9-7.73.72-11.63-.11-2.33-.44-4.65-1.42-6.82-1.1-2.43-2.9-4.03-5.6-4.24-1.62-.13-3.29,0-4.9.27-1.91.33-3.74,1.01-5.38,2.1v23.8Z"/>
  <path class="cls-1" d="M233.68,267.47c-1.76.85-3.4,1.73-5.11,2.45-5.04,2.13-10.29,2.98-15.74,2.28-1.71-.22-3.44-.44-5.09-.92-5.6-1.62-8.92-5.45-10.07-11.1-.41-2.02-.61-4.12-.62-6.18-.06-11.35-.03-22.7-.03-34.05,0-.3-.02-.61.02-.91.09-.76.48-1.13,1.27-1.2.26-.02.52,0,.78,0,4.25,0,8.49,0,12.74,0,1.83,0,2.11.28,2.11,2.09,0,10.4,0,20.79,0,31.19,0,.86,0,1.74.13,2.59.6,3.97,2.53,4.67,5.33,4.9,3.24.27,6.25-.62,9.07-2.2.48-.27.66-.61.63-1.15-.04-.69,0-1.39,0-2.08,0-11,0-22.01,0-33.01,0-.39-.03-.78.02-1.17.09-.68.5-1.07,1.2-1.15.26-.03.52-.01.78-.01,4.25,0,8.49,0,12.74,0,.22,0,.43-.01.65,0,.81.07,1.18.39,1.29,1.18.06.43.05.86.05,1.3.02,15.98.02,31.97.05,47.95,0,2.32-.25,2.69-2.53,2.62-2.42-.07-4.85.01-7.28.01-1.51,0-1.77-.23-2.02-1.74-.07-.43-.13-.85-.2-1.28-.02-.12-.1-.24-.17-.41Z"/>
  <path class="cls-1" d="M98.59,231.83c-.66,0-1.17,0-1.68,0-1.73,0-3.47,0-5.2,0-1.41-.01-1.8-.38-1.8-1.75-.01-2.77,0-5.55,0-8.32,0-1.19.26-1.52,1.42-1.81,2.35-.58,4.7-1.14,7.19-1.74.03-.44.08-.9.08-1.36,0-4.07,0-8.14,0-12.22,0-.35,0-.69,0-1.04,0-.64.37-.94.98-.97.26-.01.52-.01.78-.01,4.33,0,8.67,0,13,0,.3,0,.61,0,.91.02.55.05.89.32.88.91,0,.3,0,.61,0,.91,0,3.9,0,7.8,0,11.7,0,.46,0,.93,0,1.54.62,0,1.08,0,1.55,0,2.69,0,5.37,0,8.06,0,.3,0,.61-.01.91,0,1.04.08,1.43.43,1.44,1.44.02,3.73.02,7.45,0,11.18,0,1.1-.45,1.5-1.65,1.5-2.9.02-5.81,0-8.71,0-.47,0-.94,0-1.49,0-.04.42-.1.75-.1,1.08,0,6.58-.02,13.17,0,19.75,0,2.89,1.15,4.73,3.57,5.38,1.35.37,2.81.41,4.22.48.99.05,1.99-.14,2.98-.15.96-.01,1.38.37,1.39,1.31.03,3.29.03,6.58,0,9.88,0,.92-.29,1.25-1.31,1.49-1.64.38-3.29.81-4.95.99-4.07.43-8.14.32-12.07-.98-5.76-1.89-8.91-6.05-9.92-11.89-.31-1.78-.43-3.61-.44-5.42-.05-6.71-.02-13.43-.02-20.14v-1.78Z"/>
  <path class="cls-1" d="M84.66,244.22c0,8.01,0,16.03,0,24.04,0,.35.02.7-.01,1.04-.11.99-.58,1.45-1.59,1.55-.3.03-.61.02-.91.02-3.86,0-7.71,0-11.57,0-.39,0-.78.02-1.17-.04-.93-.13-1.47-.67-1.59-1.61-.05-.38-.04-.78-.04-1.17,0-15.98,0-31.96,0-47.94,0-.3-.02-.61.01-.91.09-.95.54-1.4,1.48-1.5.21-.02.43-.01.65-.01,4.2,0,8.41,0,12.61,0,.35,0,.7,0,1.04.06.63.1.99.51,1.07,1.13.05.34.02.69.02,1.04,0,8.1,0,16.2,0,24.3Z"/>
  <path class="cls-1" d="M67.05,204.14c.08-5.09,3.96-9.46,9.44-9.39,5.26.07,9.25,4.27,9.18,9.5-.06,5.19-3.99,9.36-9.36,9.32-5.46-.04-9.21-4.38-9.27-9.43Z"/>
</svg>