<?xml version="1.0" encoding="UTF-8"?>
<svg id="Laag_1" data-name="Laag 1" xmlns="http://www.w3.org/2000/svg" viewBox="0 0 482.62 160">
  <defs>
    <style>
      .cls-1, .cls-2 {
        stroke-width: 0px;
      }

      .cls-2 {
        fill: #fff;
      }
    </style>
  </defs>
  <path class="cls-2" d="M82.38.11c25.48,0,50.96.09,76.44-.09,4.16-.03,5.65.67,5.63,5.33-.2,49.77-.17,99.54-.04,149.3.01,3.98-.79,5.35-5.1,5.34-51.29-.16-102.59-.16-153.88,0-4.52.02-5.45-1.31-5.44-5.6C.15,104.8.15,55.2,0,5.6-.01,1.3.92-.04,5.44,0c25.65.23,51.29.11,76.94.11ZM82.54,7.59v.14c-23.15,0-46.29.11-69.44-.09-4.43-.04-5.93.94-5.91,5.71.16,45.1.11,90.2-.09,135.31-.02,4.39,1.49,5.2,5.44,5.19,46.63-.11,93.25-.11,139.88.02,3.89.01,5.07-.94,5.06-4.97-.15-45.43-.14-90.87-.02-136.3.01-3.85-.94-5.12-4.98-5.08-23.31.19-46.63.09-69.94.09Z"/>
  <path class="cls-2" d="M349.47,106.72c2.21-3.14,3.97-5.72,6.86-6.6,2.26-.68,4.95-2.86,6.83.9,1,2,2.3.23,3.34-.12,5.15-1.71,10.38-2.42,15.73-1.38,5.77,1.13,9.7,4.56,10.94,10.3,2.01,9.35.2,18.92,1.1,28.35.12,1.23-.69,2-1.81,1.77-2.38-.48-5.76,1.8-6.99-1.73-.93-2.66-1.75-1.65-3-.62-2.69,2.2-5.88,3.08-9.27,3.23-5.92.26-10.74-2.91-12.47-8.05-1.83-5.42.36-11.69,5.28-14.84,4.33-2.77,9.22-3.64,14.26-4.01,1.25-.09,3,.39,3.51-1.18.56-1.72-.44-3.26-1.71-4.41-3.39-3.08-7.44-2.65-11.3-1.48-3.03.92-5.96,1.31-9.12,1.19-6.52-.27-10.92,3.96-11.11,10.58-.17,5.98-.27,11.98.03,17.96.23,4.76-3.01,3.24-5.34,3.41-2.53.18-4.85.51-4.78-3.56.2-11.13,0-22.27-.13-33.41-.02-2,.46-3.44,2.71-3.06,2.02.35,4.92-1.59,5.85,1.92.32,1.22.32,2.52.6,4.84ZM384.22,124.94c.7-3.81-.67-5.55-4.86-4.31-1.26.37-2.66.34-3.89.77-2.78.99-5.06,2.57-5.37,5.86-.24,2.56.63,4.63,2.99,5.78,3.05,1.48,5.84.62,8.34-1.36,2.09-1.65,3.1-3.86,2.79-6.74Z"/>
  <path class="cls-2" d="M319.42,119.39c0-2.49-.24-5.02.06-7.48.44-3.71-.9-5.49-4.63-4.68-3.51.76-6.7-.55-10.03-.99-2.93-.39-6.03-.05-6.86,3.41-.81,3.38,2.12,4.48,4.53,5.61,2.4,1.13,4.94,2,7.25,3.28,4,2.21,5.84,5.75,5.66,10.33-.18,4.61-2.46,7.96-6.5,9.88-6.37,3.03-12.92,2.59-19.44.35-3.77-1.3-1.2-3.79-.95-5.78.34-2.74,1.89-1.86,3.56-1.16,2.94,1.24,6.03,2,9.25,1.37,2.05-.4,3.81-1.36,4.29-3.63.5-2.34-.82-3.89-2.66-4.85-2.35-1.23-4.89-2.08-7.28-3.24-5.18-2.52-7.92-6.71-7.4-11.33.64-5.62,4.04-8.97,9.22-10.62,3.9-1.23,7.91-1.08,11.83-.07,2.09.54,4.01.51,6.18.35,3.48-.26,4.15-1.58,3.98-4.61-.13-2.41,6.96-6.48,8.98-5.23,1.57.97.93,2.78.76,4.1-.56,4.26.76,6.26,5.37,5.57,2.29-.34,4.62-.52,4.61,3.27-.01,3.4-1.31,4.54-4.41,3.97-4.89-.91-5.92,1.47-5.57,5.8.33,4.13.02,8.31.09,12.46.07,4.31,1.34,7.68,6.63,7.17,1.98-.19,2.85.54,2.54,2.49-.3,1.9,1.09,4.28-2.16,5.28-8.43,2.6-15.69-1.8-16.61-10.56-.36-3.45-.06-6.97-.06-10.46-.08,0-.16,0-.24,0Z"/>
  <path class="cls-2" d="M275,135.15c-1.1.98-2.03,1.93-3.08,2.72-8.8,6.58-20.41,2.47-22.44-8.31-1.7-9.03-.74-18.27-.55-27.4.09-4.34,4.19-1.6,6.4-2.17,1.98-.51,3.52.07,3.46,2.77-.13,6.16-.08,12.32-.03,18.48.06,7.75,2.46,11.37,7.46,11.44,5.44.08,8.57-4.17,8.57-11.65,0-5.99.15-11.99-.06-17.97-.14-3.95,2.49-3.23,4.68-3.08,2.13.15,5.25-1.45,5.22,3.03-.08,11.32.07,22.63.14,33.95.01,1.58-.02,3.37-2.17,3-2.17-.37-5.15,1.73-6.39-1.79-.31-.88.25-2.02-1.22-3Z"/>
  <path class="cls-2" d="M458.35,119.83c-.1,12.73-8.63,21.3-20.93,21.02-11.81-.27-19.69-8.5-19.68-20.55.01-12.75,8.33-21.27,20.7-21.21,12.03.06,20.02,8.38,19.92,20.74ZM428.07,120.02c.01,7.94,4.28,13.74,10.06,13.69,5.56-.05,9.81-5.77,9.95-13.38.15-8.23-4.17-14.27-10.11-14.15-5.91.12-9.92,5.72-9.91,13.83Z"/>
  <path class="cls-2" d="M267.12,60.07c-8.05,7.18-15.89,7.7-21.74,2.12-6.61-6.3-7.2-19.71-1.21-27.13,5.21-6.45,13.44-7.22,22.35-1.35,0-5.58.04-10.58-.02-15.57-.03-2.44-.29-4.48,3.42-4.42,3.75.06,2.84,2.4,2.86,4.37.11,14.63.16,29.26.25,43.9,0,1.51.31,2.87-1.96,3.23-3.66.59-3.83-1.91-3.96-5.15ZM266.59,47.48h-.07c0-1.17.06-2.33-.01-3.49-.3-4.98-3.42-8.91-7.88-9.63-4.91-.79-8.48,1.44-10.59,5.72-2.4,4.87-2.45,9.98-.26,14.96,1.91,4.36,6.15,6.71,10.5,5.83,4.55-.92,7.26-3.86,8.04-8.43.28-1.62.19-3.31.27-4.97Z"/>
  <path class="cls-2" d="M322.61,61.17c-.8.24-.85.96-.84,1.57.06,2.5-1.6,2.42-3.37,2.44-2.26.02-2.17-1.4-2.16-3.01.07-14.95.14-29.91.09-44.86,0-2.46.48-3.57,3.24-3.56,2.75,0,3.34,1.09,3.27,3.57-.15,5.47-.05,10.94-.05,17.21,3.64-2.56,6.77-4.77,10.87-4.93,6.27-.25,11.11,2.19,13.78,7.82,3.1,6.53,3.08,13.27.05,19.75-4.66,9.95-15.24,11.55-24.9,4.01ZM322.8,48.1h-.02c0,1-.04,2,0,2.99.26,5.1,3.63,9.1,8.28,9.84,4.82.77,9.21-1.72,11.1-6.53,1.57-3.99,1.73-8.12.44-12.23-1.65-5.29-6-8.45-10.7-7.91-4.92.57-8.72,4.87-9.09,10.34-.08,1.16-.01,2.33-.01,3.49Z"/>
  <path class="cls-2" d="M219.61,16.4c2.9-.78,3.93.91,4.78,3.47,4.59,13.71,9.37,27.34,13.94,41.06.4,1.2,2.7,3.27-.01,4.03-2.09.58-5.04,1.29-6.05-2.36-.93-3.36-2.28-6.6-3.28-9.94-.62-2.06-1.72-3.12-3.93-2.81-.33.05-.66.01-1,0q-13.24-.23-17.61,12.16c-.65,1.87-1.17,3.22-3.62,3.21-2.84,0-3.87-.39-2.74-3.59,4.98-14.09,9.79-28.25,14.51-42.43.89-2.67,2.49-3.25,5.01-2.81ZM219.15,22.4c-1.54,4.88-2.66,8.62-3.89,12.32-3.72,11.15-3.74,11.05,8.13,10.35,3.1-.18,3.09-1.23,2.21-3.66-2.13-5.86-4.02-11.81-6.44-19.01Z"/>
  <path class="cls-2" d="M399.81,119.68c0-2.49-.02-4.98,0-7.47.03-2.67.63-5.5-3.81-5.09-2.72.25-1.74-2.24-1.83-3.68-.1-1.57-.49-3.72,2.15-3.48,3.56.33,3.57-1.76,3.52-4.33-.05-2.52,6.63-6.61,8.84-5.41,1.86,1.02,1.07,3.06.9,4.53-.49,4.17,1.07,5.79,5.23,5.18,2.76-.41,4.51-.04,4.58,3.75.08,4.21-2.33,3.74-4.75,3.49-3.73-.38-5.46.59-5.07,4.82.42,4.61.06,9.29.11,13.94.05,4.24,1.57,7.18,6.5,6.7,1.8-.17,3.04.19,2.69,2.33-.32,1.9,1.14,4.31-2.03,5.38-8.55,2.87-16.13-1.8-16.84-10.71-.26-3.3-.04-6.64-.04-9.96h-.14Z"/>
  <path class="cls-2" d="M228.81,110.48c0,8.65-.2,17.31.08,25.96.15,4.61-2.84,3.46-5.3,3.57-2.52.11-4.85.55-4.8-3.53.19-17.14.19-34.28,0-51.42-.05-4.04,2.2-3.73,4.77-3.57,2.42.15,5.49-1.14,5.34,3.53-.27,8.48-.08,16.97-.08,25.46Z"/>
  <path class="cls-2" d="M234.07,110.47c0-8.47.24-16.94-.1-25.4-.17-4.18,2.23-3.74,4.71-3.55,2.3.18,5.49-1.39,5.44,3.37-.18,17.26-.17,34.53-.01,51.8.04,4.78-3.21,3.08-5.49,3.3-2.56.25-4.8.43-4.64-3.62.33-8.62.1-17.26.1-25.9Z"/>
  <path class="cls-2" d="M311.79,47.7c-.18,11.09-7.58,18.64-17.98,18.35-9.61-.27-16.45-7.93-16.36-18.3.1-10.73,7.45-18.41,17.54-18.33,10.03.08,16.97,7.63,16.79,18.28ZM305.52,47.43c-.35-1.77-.51-3.61-1.07-5.31-1.75-5.27-5.48-8.12-10.12-7.94-4.61.18-8.32,3.33-9.67,8.57-1.01,3.91-1.03,7.88.61,11.69,1.69,3.93,4.49,6.62,8.95,6.82,4.48.2,7.42-2.32,9.42-6.11,1.27-2.4,1.75-4.98,1.88-7.72Z"/>
  <path class="cls-2" d="M369.92,48.79c-2.66,0-5.35.23-7.99-.06-4.27-.47-4.88,1.31-3.62,4.88,1.69,4.81,5.82,7.72,11.64,7.65,2.3-.03,4.65-.43,6.89-1,1.56-.4,2.49-.4,3.06,1.31.54,1.61,0,2.35-1.5,3.03-7.65,3.46-18.97,1.17-23.39-4.86-5-6.8-4.4-18.88,1.25-25.17,4.33-4.82,11.91-6.45,17.86-3.84,5.07,2.22,8.8,9.22,8.41,15.31-.14,2.23-1.1,2.83-3.12,2.77-3.16-.1-6.33-.03-9.49-.03ZM366.86,44.39c1.82,0,3.66-.15,5.46.03,4.05.41,4.61-1.54,3.31-4.72-1.35-3.28-3.63-5.57-7.34-5.85-3.61-.28-6.46,1.19-8.38,4.27-1.03,1.66-2.58,3.5-1.59,5.43.85,1.66,3,.67,4.58.81,1.31.12,2.65.02,3.97.03Z"/>
  <path class="cls-2" d="M213.21,112.03c0,8.15-.21,16.31.08,24.46.16,4.68-2.91,3.4-5.32,3.51-2.47.11-4.87.64-4.81-3.5.21-16.14.22-32.28,0-48.42-.07-4.74,2.97-3.32,5.32-3.44,2.41-.12,4.98-.78,4.82,3.43-.3,7.98-.09,15.97-.09,23.96Z"/>
  <path class="cls-2" d="M470.35,105.61c2.16-2.59,4.31-5.43,7.93-6.08,1.37-.25,3.95-1.59,3.73,1.22-.2,2.52,2.39,6.3-1.79,7.57-7.6,2.3-9.31,4.24-9.36,12.25-.03,5.32-.24,10.65.07,15.95.24,4.18-2.39,3.56-4.83,3.48-2.43-.09-5.38,1.11-5.3-3.52.19-11.13-.04-22.27-.16-33.4-.02-1.91.26-3.56,2.6-3.1,2.09.41,5.31-1.84,6,2.31.18,1.06-.47,2.36,1.11,3.33Z"/>
  <path class="cls-2" d="M181.19,4.4c1.86,1.36,1.17,2.99,1.17,4.36.04,48.89.03,97.79.03,146.68,0,1,.01,2-.05,2.99-.04.68-.24,1.31-1.13,1.3-.91-.01-1.02-.7-1.06-1.34-.07-.99-.05-1.99-.05-2.99,0-48.73,0-97.46.03-146.19,0-1.53-.72-3.3,1.06-4.81Z"/>
  <path class="cls-1" d="M82.54,7.59c23.31,0,46.63.1,69.94-.09,4.04-.03,4.99,1.23,4.98,5.08-.12,45.43-.13,90.87.02,136.3.01,4.04-1.17,4.98-5.06,4.97-46.63-.13-93.25-.12-139.88-.02-3.95,0-5.46-.8-5.44-5.19.2-45.1.25-90.2.09-135.31-.02-4.77,1.48-5.75,5.91-5.71,23.14.2,46.29.09,69.44.09v-.14ZM72.64,97.9c1.26,0,1.76,0,2.26,0q12.91-.02,17.44,12.19c3.71,10.01,3.72,9.84,14.54,9.97,4.21.05,4.67-.95,3.21-4.78-8.38-22.09-16.5-44.27-24.74-66.41-3.62-9.73-1.59-8.22-11.73-8.33-2.82-.03-5.88-.49-8.41.43-3.2,1.16-1.53,4.98-2.54,7.52-4.23,10.67-8.1,21.48-12.07,32.25-4.36,11.82-8.71,23.63-12.97,35.48-.45,1.25-2.17,3.06.91,3.8,8.51,2.02,12.6-.17,15.58-8.44,1.58-4.37,2.14-9.99,5.23-12.68,3.38-2.95,9.27-.5,13.27-.99ZM114.55,89.97c0,6.97,0,13.95,0,20.92,0,9.22,0,9.04,9.15,9.21,3.66.07,4.86-.88,4.81-4.7-.22-14.94-.09-29.88-.09-44.83,0-9.89,0-9.73-9.67-9.75-3.31,0-4.33.99-4.26,4.24.18,8.3.06,16.6.06,24.9ZM128.23,49.72c.05-3.62-2.93-6.63-6.62-6.68-3.44-.05-7.7,3.43-7.83,6.38-.14,3.33,3.9,6.99,7.7,6.95,3.61-.03,6.7-3.07,6.75-6.65Z"/>
  <path class="cls-2" d="M72.64,97.9c-4.01.48-9.89-1.97-13.27.99-3.09,2.69-3.65,8.31-5.23,12.68-2.98,8.27-7.07,10.45-15.58,8.44-3.09-.73-1.36-2.55-.91-3.8,4.26-11.85,8.61-23.67,12.97-35.48,3.97-10.77,7.84-21.58,12.07-32.25,1.01-2.54-.67-6.36,2.54-7.52,2.53-.91,5.59-.46,8.41-.43,10.14.11,8.1-1.4,11.73,8.33,8.25,22.14,16.36,44.33,24.74,66.41,1.45,3.83,1,4.83-3.21,4.78-10.83-.13-10.83.04-14.54-9.97q-4.53-12.21-17.44-12.19c-.5,0-1,0-2.26,0ZM73.17,53.62c-3.53,10.5-6.63,19.94-9.9,29.32-.88,2.52-.23,3.25,2.31,3.21,5.15-.1,10.31-.09,15.46,0,2.48.05,3.3-.63,2.38-3.2-3.35-9.35-6.56-18.75-10.25-29.33Z"/>
  <path class="cls-2" d="M114.54,89.97c0-8.3.12-16.61-.06-24.9-.07-3.25.95-4.25,4.26-4.24,9.67.02,9.67-.13,9.67,9.75,0,14.94-.13,29.89.09,44.83.06,3.81-1.14,4.76-4.81,4.7-9.15-.17-9.15,0-9.15-9.21,0-6.97,0-13.95,0-20.92Z"/>
  <path class="cls-2" d="M128.23,49.72c-.05,3.58-3.13,6.62-6.75,6.65-3.79.03-7.84-3.63-7.7-6.95.13-2.95,4.39-6.43,7.83-6.38,3.68.05,6.67,3.07,6.62,6.68Z"/>
  <path class="cls-1" d="M73.17,53.62c3.68,10.59,6.89,19.99,10.25,29.33.92,2.57.11,3.24-2.38,3.2-5.15-.09-10.31-.1-15.46,0-2.54.05-3.19-.69-2.31-3.21,3.27-9.38,6.37-18.82,9.9-29.32Z"/>
</svg>