<?xml version="1.0" encoding="UTF-8"?>
<svg id="Laag_1" data-name="Laag 1" xmlns="http://www.w3.org/2000/svg" viewBox="0 0 384 384">
  <defs>
    <style>
      .cls-1, .cls-2 {
        stroke-width: 0px;
      }

      .cls-2 {
        fill: #fff;
      }
    </style>
  </defs>
  <path class="cls-2" d="M384,384H0V0h384v384ZM228.77,316.16c.44,1.06.68,1.89,1.09,2.63,4.99,8.98,11.6,16.55,20.22,22.19,19.48,12.76,40.93,15.35,63.13,10.48,30.87-6.78,45.49-29.16,40.22-60.35-2.76-16.31-13.09-27.24-26.95-34.83-10.46-5.73-21.6-10.19-32.3-15.51-4.87-2.42-9.77-5.08-13.96-8.48-4.91-3.98-5.56-9.82-4.06-15.76,1.47-5.81,5.64-9.24,11.23-10.28,9.31-1.74,17.63.25,23.69,8.25,1.55,2.05,3,4.18,4.66,6.51,9.52-6.12,18.8-12.08,28.23-18.14-8.19-14.8-19.72-24.49-36.07-27.84-9.88-2.03-19.83-2.27-29.69,0-17.88,4.13-31.35,13.88-36.57,32.07-5.34,18.6-2.19,35.86,11.48,50.31,8.5,8.98,19.51,14.08,30.6,19.02,8.18,3.65,16.38,7.31,24.31,11.47,6.67,3.5,10.65,9.23,9.74,17.08-.95,8.24-6.61,12.45-14.11,14.63-15.96,4.63-32.02-1.39-42.19-15.81-1.06-1.5-2.09-3.02-3.27-4.74-9.99,5.8-19.65,11.42-29.42,17.1ZM209.74,175.82h-36.41c-.1,1.97-.28,3.8-.28,5.63-.02,37.67,0,75.34-.03,113.01,0,3.49-.07,6.99-.37,10.47-.68,7.88-4.57,13.04-11,14.9-9.95,2.88-18.62,0-24.73-8.37-2.11-2.89-3.97-5.96-6.11-9.21-9.95,6.02-19.68,11.92-29.56,17.9,5.57,11.62,13.23,20.59,24.23,26.3,15.29,7.94,31.46,8.83,47.97,4.88,17.52-4.2,28.96-15.12,33.63-32.5,1.66-6.18,2.49-12.76,2.53-19.17.22-39.92.12-79.83.12-119.75,0-1.22,0-2.45,0-4.09Z"/>
  <path class="cls-1" d="M228.77,316.16c9.78-5.68,19.44-11.3,29.42-17.1,1.18,1.72,2.21,3.24,3.27,4.74,10.17,14.42,26.23,20.44,42.19,15.81,7.5-2.18,13.16-6.39,14.11-14.63.9-7.85-3.08-13.58-9.74-17.08-7.93-4.16-16.12-7.83-24.31-11.47-11.09-4.94-22.1-10.04-30.6-19.02-13.67-14.44-16.82-31.71-11.48-50.31,5.22-18.19,18.69-27.94,36.57-32.07,9.85-2.28,19.81-2.03,29.69,0,16.35,3.35,27.87,13.05,36.07,27.84-9.43,6.06-18.71,12.03-28.23,18.14-1.66-2.33-3.11-4.46-4.66-6.51-6.06-7.99-14.39-9.99-23.69-8.25-5.59,1.05-9.76,4.48-11.23,10.28-1.5,5.94-.85,11.78,4.06,15.76,4.2,3.4,9.09,6.06,13.96,8.48,10.69,5.32,21.84,9.78,32.3,15.51,13.86,7.59,24.2,18.52,26.95,34.83,5.27,31.19-9.35,53.57-40.22,60.35-22.21,4.88-43.65,2.28-63.13-10.48-8.61-5.64-15.22-13.2-20.22-22.19-.41-.74-.66-1.57-1.09-2.63Z"/>
  <path class="cls-1" d="M209.74,175.82c0,1.64,0,2.87,0,4.09,0,39.92.11,79.83-.12,119.75-.04,6.41-.87,12.99-2.53,19.17-4.67,17.38-16.11,28.31-33.63,32.5-16.51,3.95-32.68,3.06-47.97-4.88-11-5.71-18.66-14.68-24.23-26.3,9.88-5.99,19.61-11.88,29.56-17.9,2.15,3.25,4,6.32,6.11,9.21,6.11,8.37,14.78,11.25,24.73,8.37,6.43-1.86,10.32-7.02,11-14.9.3-3.47.36-6.98.37-10.47.02-37.67.01-75.34.03-113.01,0-1.83.18-3.66.28-5.63h36.41Z"/>
</svg>