<?xml version="1.0" encoding="UTF-8"?>
<svg id="Laag_1" data-name="Laag 1" xmlns="http://www.w3.org/2000/svg" viewBox="0 0 253.55 85.77">
  <defs>
    <style>
      .cls-1 {
        fill: #fff;
        stroke-width: 0px;
      }
    </style>
  </defs>
  <path class="cls-1" d="M168.64,19.17c2.07-3.18,3.74-6.41,6.03-9.13,4.72-5.6,10.92-8.87,18.19-9.78,10.36-1.3,19.01,2.28,25.97,9.91,2.63,2.89,4.61,6.24,5.3,10.19.23,1.31.98,2.79.61,3.9-1.34,4.04-2.53,8.21-5.89,11.25-3.07,2.78-6.54,4.33-10.77,4.35-14.16.08-28.32.26-42.48.45-.69,0-1.37.45-2.05.68,0,.22.02.44.03.66.59.15,1.19.43,1.78.44,14.16.2,28.32.38,42.48.55,6.01.07,8.88,3.74,7.33,9.5-1.06,3.93-.54,3.24-4.3,3.26-21.21.1-42.42.17-63.63.25-4.83.02-9.65.04-14.48.05-1.96,0-2.31-.33-2.45-2.26-.71-10.11,6.36-18.68,16.44-19.94.46-.06.92-.16,1.49-.27-.77-5.73.9-10.56,5.6-13.93,4.87-3.49,9.98-2.82,14.79-.15Z"/>
  <path class="cls-1" d="M217.54,54.88c.19-5.52,6.05-11.18,11.31-12.06,3.64-.61,7.38-.58,11.06-.92.73-.07,1.43-.53,2.15-.81-.02-.2-.05-.41-.07-.61-.56-.16-1.12-.44-1.69-.47-2.64-.18-5.29-.32-7.94-.41-4.27-.15-8.7-3.09-7.04-9.2.51-1.88,1.03-3.78,1.72-5.6.19-.51,1-1.1,1.55-1.13,7.27-.4,13.32,2.29,18.26,7.51,3.68,3.88,5.82,8.51,6.55,13.82.43,3.12-.08,6.12-.92,9.09-.13.46-.98,1.01-1.5,1.02-7.58.06-15.17.06-22.75.03-2.91,0-5.82-.1-8.72-.16-.62-.01-1.24-.06-1.97-.1Z"/>
  <path class="cls-1" d="M221.77,77.94c1.54,2.28,2.98,4.41,4.74,7.02-2.3,0-4.19.23-5.99-.1-.82-.15-1.5-1.35-2.13-2.16-.71-.91-1.36-1.89-1.93-2.9-.56-.99-1.47-1.16-2.3-.8-.4.17-.63,1.05-.69,1.64-.11,1.05.07,2.13-.1,3.16-.07.44-.69,1.07-1.12,1.12-4.58.57-4.7.45-4.7-4.09,0-4.76.03-9.52.02-14.29,0-1.3.16-1.91,1.87-1.73,2.39.25,4.86-.3,7.27-.12,2,.15,4.21.43,5.9,1.4,4.16,2.39,4.14,8.35.2,11.07-.3.21-.58.43-1.04.76ZM213.09,72.11c.39.8.73,2.26,1.17,2.29,1.43.1,2.94-.17,4.31-.62.55-.18,1.21-1.26,1.12-1.82-.1-.66-.84-1.45-1.51-1.75-.77-.36-1.76-.32-2.65-.34-2.08-.04-2.09,0-2.45,2.24Z"/>
  <path class="cls-1" d="M49.14,74.56c.03-5.94,4.81-10.46,11.05-10.46,6.08,0,10.94,4.64,10.81,10.53-.14,6.4-4.84,10.49-10.92,10.64-6.23.15-10.97-4.6-10.94-10.7ZM60.43,79.66c2.73.1,4.57-1.71,4.69-4.63.12-3.06-2.07-6.11-4.69-6.01-2.73.1-5.07,1.93-5.22,5.13-.15,3.14,2.02,5.39,5.22,5.51Z"/>
  <path class="cls-1" d="M105.23,74.74c0-2.85.03-5.71-.02-8.56-.02-1.18.42-1.58,1.6-1.54,2.49.08,4.98-.05,7.46.05,7.21.3,11.64,5.97,9.99,12.7-1,4.08-4.58,6.99-9.59,7.47-2.68.25-5.4.11-8.09.12-1,0-1.37-.53-1.36-1.51.03-2.91.01-5.82.01-8.72ZM110.86,74.67s0,0-.01,0c0,1.27-.05,2.54.03,3.81.02.39.31.97.63,1.09,2.82,1.08,6.5-1.11,6.94-4.08.57-3.81-3.2-6.95-6.91-5.69-.31.11-.62.69-.65,1.06-.08,1.26-.03,2.54-.03,3.81Z"/>
  <path class="cls-1" d="M233.35,74.81c0-2.8.03-5.61-.01-8.41-.02-1.26.25-1.73,1.73-1.56,1.87.21,3.79-.13,5.69-.13,2,0,4.01.11,6.01.18.32.01.64.04.95.03q2.24-.05,2.24,2.23t-2.31,2.29c-2.33,0-4.67.06-7,0-1.12-.03-1.46.4-1.46,1.49,0,1.07.42,1.36,1.43,1.34,2.28-.05,4.56.02,6.84-.02,1.09-.02,1.52.4,1.48,1.51-.15,3.59.59,3.31-3.31,3.32-1.75,0-3.5.04-5.25,0-1.09-.03-1.16.6-1.16,1.43,0,.85.11,1.42,1.19,1.4,2.65-.04,5.3.05,7.95-.03,1.34-.04,1.92.35,1.9,1.78-.06,3.95.17,3.29-3.32,3.31-3.82.02-7.63,0-11.45,0q-2.17,0-2.15-2.24c0-1.32,0-2.65,0-3.97,0-1.32,0-2.64,0-3.96,0,0,.01,0,.02,0Z"/>
  <path class="cls-1" d="M18.35,73c-1.33.32-2.51-.31-3.68-1.7-1.86-2.21-5.1-2.1-7.05-.06-2.05,2.15-1.92,5.72.28,7.67,2.11,1.86,5.29,1.66,7.02-.69.98-1.33,2.16-1.14,3.39-1.09,1.01.04,2.02.28,3.02.43-.42,1.05-.66,2.21-1.28,3.12-2.13,3.13-5.34,5.05-8.94,5.05-4.15,0-7.79-1.97-9.86-5.91-2.89-5.51-.67-11.65,5.16-14.45,5.46-2.62,12.5-.11,14.84,5.31.9,2.07.7,2.35-1.56,2.33-.32,0-.64,0-1.35,0Z"/>
  <path class="cls-1" d="M77.66,71.7c0-1.85.02-3.7,0-5.55-.02-1.03.3-1.52,1.46-1.53,4.39-.03,4.39-.06,4.39,4.33,0,2.43-.05,4.87.04,7.3.1,2.57,1.77,4.12,4.01,3.92,2.08-.19,3.3-1.48,3.34-3.72.06-3.28.07-6.56,0-9.84-.03-1.4.37-1.99,1.88-1.98,4.02.03,4.04-.03,4.02,4.03-.02,3.01.03,6.04-.19,9.04-.28,3.75-2.37,6.03-5.93,7.44-3.47,1.38-6.38.31-9.2-1.26-3.42-1.91-3.8-5.34-3.77-8.85,0-1.11,0-2.22,0-3.33h-.03Z"/>
  <path class="cls-1" d="M196.92,84.97c-1.82.5-3.05-.39-3.7-2.48-.14-.46-.97-.97-1.51-1-1.84-.12-3.71-.12-5.55.01-.54.04-1.38.56-1.51,1.02-.62,2.12-1.93,2.62-4.03,2.5-3.29-.18-3.26-.03-1.95-3.06,2.25-5.19,4.51-10.37,6.64-15.61.58-1.43,1.3-2.07,2.91-2.02,4.46.15,3.44-.52,5.13,3.39,2.25,5.19,4.45,10.4,6.66,15.61.59,1.38.41,1.61-1.16,1.63-.53,0-1.06,0-1.93,0ZM191.1,76.69c-.69-1.67-1.27-3.07-1.85-4.47-.14,0-.27.02-.41.02-.56,1.41-1.13,2.83-1.77,4.45h4.02Z"/>
  <path class="cls-1" d="M132.29,74.73c0-2.86.03-5.72-.01-8.57-.02-1.07.36-1.52,1.47-1.52,4.45.03,8.9,0,13.36,0,.21,0,.47-.06.63.03,1.63.98.54,2.58.83,3.86.2.88-.42,1.19-1.25,1.18-2.6-.02-5.2.04-7.79-.03-1.04-.03-1.44.28-1.4,1.34.04.99.06,1.76,1.42,1.71,2.17-.08,4.35.03,6.52-.02,1.17-.02,1.59.4,1.53,1.59-.19,3.58.63,3.3-3.33,3.31-1.59,0-3.18.03-4.77-.04-1.06-.05-1.42.36-1.37,1.39.07,1.53.03,3.07.06,4.6.02,1-.43,1.45-1.44,1.41-1.01-.04-2.02-.06-3.02,0-1.15.07-1.46-.48-1.45-1.53.04-2.91.01-5.82.01-8.73h0Z"/>
  <path class="cls-1" d="M156.24,74.76c0-2.81.04-5.62-.02-8.42-.03-1.22.41-1.78,1.65-1.72,4.9.21,4.22-.83,4.27,4.16.03,3.23.04,6.46-.01,9.69-.02,1.09.34,1.51,1.47,1.47,2.17-.07,4.35-.01,6.52-.05,1.14-.02,1.72.26,1.74,1.6.06,4.32.04,3.42-3.3,3.47-3.55.06-7.11-.02-10.66.04-1.26.02-1.69-.43-1.67-1.66.06-2.86.02-5.72.02-8.58Z"/>
  <path class="cls-1" d="M43.43,84.98c-4.03,0-7.78,0-11.53,0q-4.02,0-4.02-4.04c0-4.76.05-9.52-.02-14.28-.02-1.47.34-2.08,1.94-2.04,4.21.12,4-.5,3.94,3.9-.04,3.23.08,6.45-.03,9.68-.05,1.47.47,1.8,1.83,1.73,2.11-.11,4.24,0,6.35-.04,1.16-.02,1.64.43,1.56,1.6-.07,1.05-.01,2.1-.01,3.48Z"/>
</svg>