<?xml version="1.0" encoding="UTF-8"?>
<svg id="Laag_1" data-name="Laag 1" xmlns="http://www.w3.org/2000/svg" viewBox="0 0 270.46 382.32">
  <defs>
    <style>
      .cls-1 {
        fill: #fff;
        stroke-width: 0px;
      }
    </style>
  </defs>
  <path class="cls-1" d="M153.98,0v14.81h-23.24c-.77,3.06-.78,3.13,1.85,3.14,6.97.04,13.93.01,21.14.01v34.24h-40.64v-15.52c6.99,0,14.05-.04,21.1.02,2.02.02,3.17-.4,2.16-2.95h-23.56V0h41.18Z"/>
  <path class="cls-1" d="M203.41,0v14.81h-23.24c-.77,3.06-.78,3.13,1.85,3.14,6.97.04,13.93.01,21.14.01v34.24h-40.64v-15.52c6.99,0,14.05-.05,21.1.03,2.09.02,3-.55,2.25-2.96h-23.65V0h41.18Z"/>
  <path class="cls-1" d="M104.56,0v17.18h-23.78v17.14h23.56v17.03h-40.96V0h41.18Z"/>
  <path class="cls-1" d="M0,76.01h270.46c-.24,3.51-.39,6.81-.69,10.09-1.64,17.98-3.36,35.94-4.98,53.92-1.14,12.65-2.11,25.31-3.25,37.96-1.37,15.25-2.85,30.49-4.23,45.74-1.13,12.53-2.13,25.06-3.25,37.59-1.11,12.52-2.32,25.04-3.44,37.56-1.12,12.53-2.18,25.06-3.29,37.58-.38,4.34-.99,8.66-1.2,13.01-.12,2.4-1.38,3.1-3.37,3.65-22.43,6.18-44.84,12.42-67.26,18.64-12.35,3.42-24.68,6.89-37.07,10.15-2.04.54-4.48.56-6.52,0-34.54-9.49-69.03-19.15-103.56-28.63-2.7-.74-3.94-1.88-4.16-4.65-.75-9.31-1.66-18.6-2.5-27.9-1.45-16.12-2.91-32.24-4.34-48.36-1.09-12.28-2.09-24.56-3.19-36.84-1.39-15.62-2.86-31.24-4.26-46.87-1.09-12.15-2.12-24.31-3.21-36.46-1.42-15.87-2.89-31.74-4.3-47.61-.83-9.4-1.59-18.8-2.41-28.58ZM135.24,131.44s0,.09,0,.13c-1.62,0-3.24,0-4.86,0-25.58,0-51.16.01-76.74-.01-2.3,0-4.24-.05-3.89,3.27.95,9.04,1.89,18.09,2.52,27.15.26,3.75,1.83,4.52,5.35,4.52,39.68-.08,79.36,0,119.04.05,1,0,2.15-.31,2.96.09.99.48,2.15,1.43,2.4,2.4.36,1.38.01,2.96-.12,4.45-.66,7.31-1.56,14.6-1.93,21.93-.18,3.6-1.15,4.99-5.01,4.98-35.19-.1-70.38,0-105.56.04-3.62,0-7.24.07-10.86-.01-2.14-.05-2.88.82-2.67,2.93.91,9.04,2.03,18.08,2.49,27.15.22,4.38,2.1,4.85,5.79,4.84,35.81-.07,71.62.03,107.43.08,4.64,0,4.91.29,4.52,4.87-.48,5.58-.98,11.15-1.51,16.72-.59,6.19-1.26,12.37-1.83,18.56-.2,2.17-1.21,3.18-3.38,3.74-11.08,2.89-22.11,5.98-33.18,8.9-1.11.29-2.44.09-3.59-.21-10.7-2.84-21.37-5.82-32.1-8.58-2.38-.61-3.14-1.68-3.27-4.08-.37-6.71-1.11-13.41-1.58-20.11-.2-2.92-1.39-4-4.45-3.93-8.98.2-17.97.16-26.95.02-3.08-.05-4.01.69-3.67,4.07,1.56,15.24,2.85,30.5,4.02,45.77.23,3.07,1.15,4.56,4.26,5.4,21.38,5.81,42.69,11.85,64.06,17.69,1.7.46,3.74.45,5.44-.02,21.13-5.78,42.21-11.75,63.35-17.49,2.8-.76,3.94-2.2,4.16-4.83.76-8.8,1.56-17.6,2.31-26.4,1.06-12.52,2.02-25.05,3.15-37.56,1.63-18.09,3.42-36.16,5.07-54.24,1.49-16.23,2.86-32.46,4.37-48.69.24-2.58-.48-3.62-3.18-3.61-27.45.06-54.9.03-82.35.03Z"/>
</svg>