<?xml version="1.0" encoding="UTF-8"?>
<svg id="Laag_1" data-name="Laag 1" xmlns="http://www.w3.org/2000/svg" xmlns:xlink="http://www.w3.org/1999/xlink" viewBox="0 0 389.29 175.95">
  <defs>
    <style>
      .cls-1 {
        clip-path: url(#clippath);
      }

      .cls-2, .cls-3 {
        fill: none;
      }

      .cls-2, .cls-4, .cls-5 {
        stroke-width: 0px;
      }

      .cls-3 {
        stroke: #fff;
        stroke-width: 10.18px;
      }

      .cls-4 {
        fill-rule: evenodd;
      }

      .cls-4, .cls-5 {
        fill: #fff;
      }
    </style>
    <clipPath id="clippath">
      <rect class="cls-2" x="162.45" y="47.58" width="226.84" height="80.79"/>
    </clipPath>
  </defs>
  <g>
    <path class="cls-3" d="M60.35,87.97c0-7.33,2.91-14.35,8.09-19.54,5.18-5.18,12.21-8.09,19.54-8.09s14.35,2.91,19.54,8.09c5.18,5.18,8.09,12.21,8.09,19.54s-2.91,14.35-8.09,19.54c-5.18,5.18-12.21,8.09-19.54,8.09s-14.35-2.91-19.54-8.09c-5.18-5.18-8.09-12.21-8.09-19.54h0Z"/>
    <path class="cls-3" d="M5.09,143.23c0-7.33,2.91-14.35,8.09-19.54,5.18-5.18,12.21-8.09,19.54-8.09h27.63v27.63c0,7.33-2.91,14.35-8.09,19.54-5.18,5.18-12.21,8.09-19.54,8.09s-14.35-2.91-19.54-8.09c-5.18-5.18-8.09-12.21-8.09-19.54Z"/>
    <path class="cls-3" d="M60.35,5.09v55.26h27.63c7.33,0,14.35-2.91,19.54-8.09,5.18-5.18,8.09-12.21,8.09-19.54s-2.91-14.35-8.09-19.54c-5.18-5.18-12.21-8.09-19.54-8.09h-27.63Z"/>
    <path class="cls-3" d="M5.09,32.72c0,7.33,2.91,14.35,8.09,19.54,5.18,5.18,12.21,8.09,19.54,8.09h27.63V5.09h-27.63c-7.33,0-14.35,2.91-19.54,8.09-5.18,5.18-8.09,12.21-8.09,19.54Z"/>
    <path class="cls-3" d="M5.09,87.97c0,7.33,2.91,14.35,8.09,19.54,5.18,5.18,12.21,8.09,19.54,8.09h27.63v-55.26h-27.63c-7.33,0-14.35,2.91-19.54,8.09-5.18,5.18-8.09,12.21-8.09,19.54Z"/>
  </g>
  <g class="cls-1">
    <g>
      <path class="cls-5" d="M164.07,47.58v62.64l8.08.03v-29.83h19.42v-7.89h-19.45v-17.09h25.33v-7.86h-33.37ZM211.92,60.32c1.4,0,2.74-.56,3.74-1.55.99-.99,1.55-2.33,1.55-3.74s-.56-2.74-1.55-3.74c-.99-.99-2.33-1.55-3.74-1.55s-2.74.56-3.74,1.55c-.99.99-1.55,2.33-1.55,3.74s.56,2.74,1.55,3.74c.99.99,2.33,1.55,3.74,1.55ZM207.85,68.18v42.07h8.08v-42.07h-8.08Z"/>
      <path class="cls-4" d="M245.79,66.97c-10.69,0-18.15,9.04-18.15,19.79s7.46,19.79,18.15,19.79c4.91,0,8.95-1.86,11.9-4.97v5.59c.02,1.67-.29,3.33-.91,4.88-.62,1.55-1.55,2.96-2.72,4.15-1.17,1.19-2.57,2.14-4.11,2.78-1.54.65-3.2.98-4.87.99-2.58,0-5.13-.99-7.15-2.42l-4.04,6.99c3.12,2.02,6.73,3.16,10.45,3.3,3.72.14,7.4-.73,10.67-2.51,3.26-1.78,5.99-4.41,7.88-7.61,1.89-3.2,2.89-6.85,2.88-10.57v-38.94h-8.08v3.76c-2.95-3.11-6.99-4.97-11.9-4.97v-.03ZM235.69,86.76c0-6.68,5.1-11.93,11-11.93s10.97,5.28,10.97,11.93-5.1,11.9-10.97,11.9-11-5.22-11-11.9Z"/>
      <path class="cls-5" d="M294.8,74.83c-2.31.04-4.51.99-6.13,2.64-1.62,1.65-2.52,3.87-2.51,6.18v26.6h-8.08v-42.07h8.08v3.85c1.21-1.6,2.78-2.9,4.58-3.78,1.8-.88,3.79-1.32,5.8-1.29,5.66,0,10.01,2.8,12.49,7.08,1.39-2.15,3.28-3.92,5.52-5.16,2.24-1.24,4.75-1.9,7.31-1.93,9.17,0,14.92,7.4,14.92,16.56v26.72h-8.02v-26.63c0-2.31-.89-4.53-2.51-6.18-1.62-1.65-3.82-2.6-6.13-2.64-2.31.04-4.51.99-6.13,2.64-1.62,1.65-2.52,3.87-2.51,6.18v26.6h-8.08v-26.6c0-2.31-.89-4.52-2.5-6.17-1.61-1.65-3.8-2.6-6.11-2.65v.03Z"/>
      <path class="cls-4" d="M379.75,72.97c-1.83-1.91-4.04-3.43-6.48-4.46-2.44-1.03-5.07-1.55-7.72-1.53-11.99,0-20.51,10.13-20.51,22.25s8.51,22.25,20.51,22.25c2.65.01,5.27-.51,7.72-1.54,2.44-1.03,4.65-2.55,6.49-4.46v4.79h8.05v-42.07h-8.08v4.79h.03ZM353.09,89.22c0-8.02,6.15-14.39,13.33-14.39s13.33,6.37,13.33,14.39-6.15,14.36-13.33,14.36-13.33-6.34-13.33-14.36Z"/>
    </g>
  </g>
  <path class="cls-5" d="M138.98,10.31c1.86,1.36,1.17,2.99,1.17,4.36.04,48.89.03,97.79.03,146.68,0,1,.01,2-.05,2.99-.04.68-.24,1.31-1.13,1.3-.91-.01-1.02-.7-1.06-1.34-.07-.99-.05-1.99-.05-2.99,0-48.73,0-97.46.03-146.19,0-1.53-.72-3.3,1.06-4.81Z"/>
</svg>