<?xml version="1.0" encoding="UTF-8"?>
<svg id="Laag_1" data-name="Laag 1" xmlns="http://www.w3.org/2000/svg" viewBox="0 0 418.49 108.82">
  <defs>
    <style>
      .cls-1 {
        fill: #fff;
        stroke-width: 0px;
      }
    </style>
  </defs>
  <g id="Laag_1-2" data-name="Laag 1-2">
    <path class="cls-1" d="M191.02,11c-19.29,10.08-40.55,22.81-40.71,43.48.24,20.45,20.96,33.11,40.06,43.12-23.39-10.27-49.99-19.59-77.08-26.91-33.13-8.96-65.25-14.47-94.07-16.22,28.85-1.75,61-7.29,94.17-16.27,27.28-7.39,54.09-16.81,77.64-27.2M212.69,0C159.12,27.68,71.91,54.47,0,54.47c71.8,0,159.01,26.67,212.57,54.35-20.48-12.72-61.33-25.77-61.67-54.35.23-28.58,41.3-41.64,61.78-54.47h0Z"/>
  </g>
  <g>
    <path class="cls-1" d="M214.93,82.53c2.87-1.11,3.92-2.58,3.92-3.92,0-1.93-1.87-3.22-4.86-3.22-3.92,0-8.78,1.81-13.17,1.81-6.21,0-9.19-3.57-9.19-7.44,0-7.44,9.31-10.19,15.81-10.77v.47c-5.27.53-11.48,2.46-11.48,5.39,0,1.35,1.35,1.87,2.99,1.87,3.16,0,9.78-2.23,14.93-2.23,5.45,0,9.43,2.69,9.43,7.96,0,3.22-1.93,8.25-8.14,10.48l-.23-.41ZM192.09,45.11c0-7.67,6.03-13.41,15.34-13.41s15.34,5.74,15.34,13.41-6.03,13.41-15.34,13.41-15.34-5.74-15.34-13.41ZM219.14,79.95c2.25-1.98,3.57-4.66,3.57-7.49,0-4.6-3.31-7.38-8.84-7.38-5.09,0-11.67,2.22-14.93,2.22-2.22,0-3.57-.91-3.57-2.46,0-.59.21-1.16.6-1.7-2.24,1.56-3.76,3.71-3.76,6.62,0,4.11,3.38,6.85,8.61,6.85,4.32,0,9.14-1.82,13.17-1.82,3.26,0,5.45,1.5,5.45,3.8,0,.47-.1.92-.29,1.34h0ZM205.04,57.8c-2.04-1.68-2.99-5.91-2.99-12.69s.96-11,2.99-12.68c-7.42.87-12.36,5.82-12.36,12.68s4.94,11.81,12.36,12.69h0ZM212.23,45.11c0-7.38-1.11-12.94-4.8-12.94s-4.8,5.56-4.8,12.94,1.11,12.94,4.8,12.94,4.8-5.56,4.8-12.94ZM209.82,57.8c7.42-.87,12.36-5.82,12.36-12.69s-4.95-11.81-12.36-12.68c2.04,1.68,3,5.91,3,12.68s-.96,11-3,12.69h0ZM214.05,32.29c-.76-1.46-1.11-2.99-1.11-4.45,0-3.69,2.4-6.79,6.73-6.79,2.63,0,6.26,1.58,6.26,5.97,0,3.63-2.52,5.21-4.62,5.21-2.22,0-4.39-1.58-4.39-4.57,0-1.8.91-4.46,3.77-5.74-.54-.13-1.04-.18-1.55-.18-3.46,0-5.56,2.81-5.56,6.26,0,1.29.29,2.63.94,4.04l-.47.23ZM221.31,31.65c2.36,0,4.04-1.92,4.04-4.62,0-2.41-1.33-4.24-3.48-4.95-2.8.97-4.36,3.11-4.36,5.59,0,2.33,1.58,3.98,3.8,3.98h0Z"/>
    <path class="cls-1" d="M235.77,63.32c-5.68,0-8.2-4.16-8.2-8.96v-20.78c3.34,0,7.14-.7,10.42-1.87v22.36c0,2.69,1.58,4.16,3.69,4.16s4.72-1.73,6.15-4.93v-19.77c3.34,0,7.14-.7,10.42-1.87v23.42c0,3.98.41,5.27,2.34,5.91-1.35,1.58-3.98,2.34-6.44,2.34-6.15,0-6.32-3.51-6.32-8.72v-.47c-3.21,6.64-7.77,9.2-12.06,9.2h0ZM235.76,62.74c3.5,0,6.67-1.76,9.21-5.04-1.05.71-2.19,1.12-3.29,1.12-2.58,0-4.27-1.89-4.27-4.74v-21.55c-3.01.99-6.31,1.56-9.25,1.63v20.21c0,5.2,2.89,8.37,7.61,8.37h0ZM259.55,61.17c-1.47-.83-1.89-2.4-1.89-6.1v-22.6c-3.01.99-6.31,1.56-9.25,1.63v20.5c0,5.2.15,8.14,5.74,8.14,2.17,0,4.17-.6,5.4-1.57Z"/>
    <path class="cls-1" d="M272.3,63.32c-5.68,0-8.2-4.16-8.2-8.96v-20.78c3.34,0,7.14-.7,10.42-1.87v22.36c0,2.69,1.58,4.16,3.69,4.16s4.72-1.73,6.15-4.93v-19.77c3.34,0,7.14-.7,10.42-1.87v23.42c0,3.98.41,5.27,2.34,5.91-1.35,1.58-3.98,2.34-6.44,2.34-6.15,0-6.32-3.51-6.32-8.72v-.47c-3.21,6.64-7.77,9.2-12.06,9.2h0ZM272.3,62.74c3.5,0,6.67-1.76,9.21-5.04-1.05.71-2.19,1.12-3.29,1.12-2.58,0-4.27-1.89-4.27-4.74v-21.55c-3.01.99-6.31,1.56-9.25,1.63v20.21c0,5.2,2.89,8.37,7.61,8.37h0ZM296.08,61.17c-1.47-.83-1.89-2.4-1.89-6.1v-22.6c-3.01.99-6.31,1.56-9.25,1.63v20.5c0,5.2.15,8.14,5.74,8.14,2.17,0,4.17-.6,5.4-1.57Z"/>
    <path class="cls-1" d="M300.28,57.23c0-2.81,2.22-4.57,4.45-4.57s4.04,1.7,4.04,4.27c0,1.7-.82,3.63-2.98,5.04,1.05.29,2.17.41,3.16.41,3.98,0,7.2-1.93,7.2-5.68,0-6.97-15.46-6.27-15.46-15.87,0-6.15,5.97-9.13,13.52-9.13,6.44,0,12.29,1.58,12.29,6.09,0,2.81-2.22,4.57-4.45,4.57s-4.04-1.7-4.04-4.27c0-1.7.82-3.63,2.98-5.04-.94-.23-2.05-.41-3.22-.41-3.34,0-6.5,1.52-6.5,4.57,0,6.62,16.22,6.62,16.22,16.51,0,6.38-7.38,9.6-14.93,9.6-6.44,0-12.29-1.58-12.29-6.09ZM308.19,56.94c0-2.12-1.48-3.69-3.45-3.69-2.16,0-3.86,1.75-3.86,3.98,0,2.06,1.48,3.6,4.22,4.52,2.27-1.47,3.09-3.07,3.09-4.82ZM312.58,62.74c8.41,0,14.34-3.68,14.34-9.02,0-9.41-16.22-9.29-16.22-16.51,0-2.44,1.86-4.26,4.71-4.9-.39-.01-.79-.02-1.2-.02-8.01,0-12.94,3.24-12.94,8.55,0,9.09,15.46,8.27,15.46,15.87,0,3.08-2.05,5.29-5.34,6.01.38.01.78.02,1.18.02h0ZM322.06,41.78c2.16,0,3.86-1.75,3.86-3.98,0-2.06-1.49-3.61-4.24-4.53-2.24,1.43-3.08,3.09-3.08,4.82,0,2.12,1.48,3.69,3.46,3.69h0Z"/>
    <path class="cls-1" d="M332.31,54.6V21.87c3.34,0,7.14-.7,10.42-1.87v35.07c0,3.98.41,5.27,2.34,5.91-1.35,1.58-3.98,2.34-6.44,2.34-6.15,0-6.32-3.51-6.32-8.72ZM344.03,61.17c-1.47-.83-1.89-2.4-1.89-6.1V20.82c-3.01.99-6.31,1.56-9.25,1.63v32.15c0,5.2.15,8.14,5.74,8.14,2.17,0,4.16-.6,5.4-1.57Z"/>
    <path class="cls-1" d="M348,49.74c0-11.18,8.72-18.03,17.74-18.03,2.75,0,4.74.63,6.34,1.78,2.75-.23,5.66-.86,8.24-1.78v23.36c0,3.98.41,5.27,2.34,5.91-1.35,1.58-3.98,2.34-6.44,2.34-5.89,0-6.3-3.23-6.32-8.09-1.32,4.01-4.21,8.09-10.3,8.09-6.85,0-11.59-5.21-11.59-13.58ZM367.58,58.69c-.8.58-1.71.88-2.72.88-3.85,0-5.86-3.93-5.86-11.12,0-8.16,2.08-14.2,5.39-16.11-9.01.66-15.81,7.95-15.81,17.4,0,7.89,4.34,13,11.01,13,3.43,0,6.12-1.36,7.99-4.04ZM369.89,53.43v-16.98c0-2.11-.53-4.16-3.16-4.16-4.22,0-7.14,6.56-7.14,16.16,0,6.5,1.64,10.54,5.27,10.54,2.93,0,4.45-2.87,5.03-5.56ZM376.22,62.74c2.17,0,4.17-.6,5.4-1.57-1.47-.83-1.89-2.4-1.89-6.1v-22.54c-2.45.8-5.1,1.34-7.61,1.54l-.39-.11c-.68-.49-1.42-.87-2.25-1.14.67.79,1,2,1,3.63v18.78c.02,4.82.36,7.5,5.74,7.5h0Z"/>
    <path class="cls-1" d="M386.17,21.87c3.34,0,7.14-.7,10.42-1.87v19.79c1.32-4.01,4.21-8.08,10.3-8.08,6.85,0,11.59,5.21,11.59,13.58,0,11.18-8.72,18.03-17.74,18.03-2.76,0-4.74-.63-6.34-1.78-2.75.23-5.66.86-8.24,1.78V21.87ZM386.76,62.51c2.45-.8,5.1-1.34,7.61-1.54l.39.11c.68.49,1.42.87,2.25,1.14-.67-.79-1-2-1-3.63V20.82c-3.01.99-6.31,1.56-9.25,1.63v40.06ZM406.9,46.58c0-6.5-1.64-10.54-5.27-10.54-2.93,0-4.45,2.87-5.04,5.56v16.98c0,2.11.53,4.16,3.16,4.16,4.21,0,7.14-6.56,7.14-16.16ZM417.9,45.29c0-7.89-4.34-13-11.01-13-3.43,0-6.13,1.36-7.99,4.04.8-.58,1.71-.88,2.72-.88,3.85,0,5.85,3.94,5.85,11.12,0,8.16-2.08,14.21-5.39,16.11,9.01-.66,15.81-7.95,15.81-17.4Z"/>
  </g>
</svg>