<?xml version="1.0" encoding="UTF-8"?>
<svg id="Laag_1" data-name="Laag 1" xmlns="http://www.w3.org/2000/svg" viewBox="0 0 270.58 382.41">
  <defs>
    <style>
      .cls-1 {
        fill: #fff;
        stroke-width: 0px;
      }
    </style>
  </defs>
  <path class="cls-1" d="M195.9,0v51.42h-16.86v-23.69c-.31-.12-.63-.24-.94-.36-3.61,5.53-7.23,11.06-11.23,17.19-3.89-5.97-7.58-11.62-11.27-17.27-.23.04-.46.07-.7.11v24.07h-17.01v-4c0-14.35.01-28.69-.02-43.04,0-1.48-.23-2.96-.35-4.43,6.24,0,12.48,0,18.71,0,3.49,5.96,6.99,11.92,10.75,18.33C170.84,11.87,174.39,5.94,177.94,0c5.99,0,11.98,0,17.96,0Z"/>
  <path class="cls-1" d="M75.39,0c-.08,14.94-.17,29.89-.25,44.83-.01,2.1,0,4.2,0,6.55h-17.19v-16.69h-15.72v16.69h-17.49c0-1.29,0-2.62,0-3.94,0-14.45,0-28.91-.01-43.36,0-1.36-.16-2.72-.24-4.08,5.74,0,11.48,0,17.22,0v16.9h16.47V0h17.22Z"/>
  <path class="cls-1" d="M130.03,0v17.09h-14.86v34.34h-17.12V17.37h-15.18V0h47.16Z"/>
  <path class="cls-1" d="M222.1,0v34.36h23.77v17.09h-40.99V0h17.22Z"/>
  <path class="cls-1" d="M0,75.99h270.58c-.6,7.19-1.15,14.1-1.76,21.02-1.14,12.78-2.33,25.55-3.49,38.32-1.41,15.63-2.83,31.26-4.22,46.88-1.1,12.28-2.16,24.57-3.26,36.85-1.41,15.75-2.85,31.5-4.25,47.26-1.36,15.38-2.68,30.77-4.02,46.16-1.05,12.04-2.13,24.07-3.14,36.11-.23,2.69-1.4,3.93-4.16,4.68-34.67,9.49-69.29,19.17-103.96,28.7-1.93.53-4.24.62-6.15.1-34.65-9.52-69.25-19.21-103.91-28.69-3-.82-4.01-2.3-4.24-5.06-1.27-15.27-2.54-30.53-3.9-45.79-1.63-18.23-3.38-36.46-5.01-54.69-1.36-15.26-2.6-30.53-3.95-45.79-1.38-15.51-2.87-31-4.25-46.51-1.35-15.13-2.62-30.28-3.96-45.41-.89-10.05-1.85-20.09-2.77-30.14-.11-1.22-.12-2.45-.19-3.99ZM49.95,131.61c0,1.99-.12,3.46.02,4.91.88,9.43,1.85,18.84,2.71,28.27,2.01,21.95,4.11,43.9,5.84,65.88.32,4.04,1.92,4.5,5.29,4.5,35.8-.04,71.59.05,107.39.1,1.57,0,3.13,0,4.75,0,.14,1.2.31,1.82.26,2.41-1.06,12.65-2.15,25.3-3.2,37.94-.2,2.34-1.52,3.38-3.69,3.95-10.83,2.81-21.63,5.74-32.47,8.55-1.12.29-2.45.27-3.57-.02-10.96-2.84-21.88-5.83-32.85-8.61-2.37-.6-3.09-1.72-3.23-4.1-.39-6.84-1.08-13.66-1.7-20.48-.17-1.89-.37-3.6-3.15-3.56-9.73.14-19.46.08-29.19.03-2.17-.01-2.75.85-2.56,2.97,1.47,15.88,2.88,31.76,4.19,47.65.21,2.53,1.27,3.66,3.67,4.32,21.36,5.88,42.68,11.89,64.03,17.78,1.48.41,3.25.58,4.7.18,21.7-5.92,43.38-11.96,65.06-17.95,1.86-.51,2.88-1.36,3.07-3.52,1.35-15.49,2.85-30.98,4.28-46.46,1.2-13.01,2.4-26.02,3.54-39.03.48-5.52.81-11.06,1.24-17h-123.72c-1.04-11.45-2.04-22.53-3.06-33.78,1.22-.1,1.95-.21,2.68-.21,14.72,0,29.44,0,44.16.01,26.57.02,53.13.04,79.7.11,2.38,0,3.59-.53,3.78-3.26.6-8.81,1.46-17.61,2.26-26.41.48-5.26.51-5.27-4.7-5.27-53.63.03-107.27.07-160.9.11-1.45,0-2.91,0-4.63,0Z"/>
</svg>