<?xml version="1.0" encoding="UTF-8"?>
<svg id="Laag_1" data-name="Laag 1" xmlns="http://www.w3.org/2000/svg" viewBox="0 0 572.37 115.2">
  <defs>
    <style>
      .cls-1 {
        fill: #fff;
        stroke-width: 0px;
      }
    </style>
  </defs>
  <path class="cls-1" d="M572.37,103.23c-4.03,8.92-11.1,12.6-21.62,11.25-3.66-.47-7.2-1.32-10.21-3.59-3.59-2.7-5.38-6.3-5.43-10.95h8.35c2.32,7.11,11.86,9.81,17.74,5.07,3.43-2.76,3.08-7.46-.95-9.29-2.86-1.3-6.02-1.94-9.03-2.92-2.63-.86-5.35-1.56-7.85-2.71-9.87-4.53-8.89-16.63-1.21-21.38,7.42-4.58,15.23-4.7,22.88-.61,4.08,2.18,6.43,5.79,6.56,10.98-2.57,0-5.07.06-7.57-.06-.4-.02-.98-.75-1.11-1.25-1.55-6.23-13.41-6.5-16.61-2.13-1.9,2.6-1.5,6.03,1.44,7.57,2.49,1.3,5.31,1.99,8.02,2.87,1.66.54,3.38.87,5.05,1.37,5.53,1.68,9.85,4.71,11.54,10.57v5.23Z"/>
  <path class="cls-1" d="M116.72,114.18V.24h99.58v18.25h-79.69v29.47h64v18.41h-63.91v30.31h79.64v18.44c-.81,0-1.64,0-2.47,0-39.68,0-79.35-.01-119.03.04-1.7,0-2.71-.55-3.75-1.85-23.21-28.87-46.47-57.71-69.73-86.55-.39-.48-.81-.94-1.65-1.93v90.12H0V.04c.7,0,1.46,0,2.22,0,6.76,0,13.52.05,20.27-.04,1.5-.02,2.45.43,3.4,1.6,29.46,36.58,58.95,73.13,88.44,109.68.64.8,1.3,1.58,2.39,2.89Z"/>
  <path class="cls-1" d="M240.48.1c1.47,0,2.47,0,3.47,0,6.44,0,12.88.08,19.32-.05,2.11-.04,3.47.6,4.79,2.26,9.99,12.53,20.08,24.97,30.14,37.44.45.55.93,1.07,1.55,1.8,3.15-3.9,6.23-7.69,9.3-11.5,7.52-9.32,15.06-18.63,22.53-27.99,1.03-1.29,2.09-1.87,3.79-1.85,6.91.08,13.83,0,20.75,0,.76,0,1.53.08,2.74.14-15.52,19.27-30.77,38.21-46.17,57.34,15.34,19.02,30.64,38,46.19,57.28-1.01.08-1.67.17-2.33.17-7.15.01-14.31-.03-21.46.04-1.39.01-2.32-.35-3.22-1.47-29.84-37.08-59.71-74.13-89.58-111.18-.52-.65-1-1.34-1.79-2.41Z"/>
  <path class="cls-1" d="M440.69,115.05h-19.77V18.54h-40.3V.18h99.42v18.25h-39.36v96.62Z"/>
  <path class="cls-1" d="M240.59,114.87c13.08-16.21,26.03-32.28,39.24-48.66,4.37,5.41,8.61,10.67,12.96,16.07-4.63,5.75-9.2,11.41-13.76,17.08-3.88,4.81-7.73,9.65-11.67,14.42-.53.65-1.48,1.35-2.25,1.36-7.86.09-15.73.05-23.59.03-.2,0-.41-.13-.94-.3Z"/>
  <path class="cls-1" d="M518.41,66.09h8.69c0,.8,0,1.56,0,2.31,0,10.06-.06,20.12.02,30.18.05,5.98-1.63,11.1-7.22,13.94-5.98,3.04-12.17,2.91-17.99-.53-3.83-2.27-5.63-5.89-5.46-10.59h8.46c.48,3.26,2.27,5.49,5.84,5.97,3.64.49,6.48-1.38,7.25-4.94.28-1.3.39-2.67.39-4,.03-9.82.02-19.65.02-29.47v-2.88Z"/>
  <path class="cls-1" d="M484.6,114.35c-2.88,0-5.22-2.27-5.23-5.07-.01-2.78,2.34-5.09,5.2-5.1,2.83,0,5.24,2.32,5.25,5.07,0,2.76-2.39,5.1-5.22,5.09Z"/>
</svg>