<?xml version="1.0" encoding="UTF-8"?>
<svg id="Laag_1" data-name="Laag 1" xmlns="http://www.w3.org/2000/svg" viewBox="0 0 399.74 119.4">
  <defs>
    <style>
      .cls-1, .cls-2 {
        stroke-width: 0px;
      }

      .cls-2 {
        fill: #fff;
      }
    </style>
  </defs>
  <path class="cls-2" d="M61.49.06c19.16,0,38.32.05,57.47-.05,2.62-.01,3.65.38,3.64,3.4-.13,37.55-.12,75.11-.04,112.66,0,2.69-.74,3.32-3.36,3.31-38.64-.08-77.27-.08-115.91.02-2.76,0-3.29-.87-3.28-3.42C.09,78.43.09,40.87,0,3.32,0,.63.76-.01,3.37,0c19.37.11,38.74.06,58.11.06ZM61.29,114.37c17.67,0,35.33-.04,53,.05,2.35.01,3.27-.39,3.26-3.07-.1-34.36-.09-68.72,0-103.08,0-2.53-.69-3.17-3.19-3.16-35.23.11-70.45.14-105.68.07-2.74,0-3.32.85-3.31,3.42.06,34.15.07,68.3-.08,102.44-.01,3.05,1.04,3.4,3.63,3.38,17.45-.1,34.91-.05,52.36-.05Z"/>
  <path class="cls-2" d="M376.77,78.3c5.93-5.43,12.05-6.23,17.27-2.38,5.09,3.76,7.12,12.29,4.65,19.49-2.08,6.06-7.08,9.57-13.27,9.37-2.89-.09-5.34-1.21-7.98-3.64,0,4.48-.13,8.43.05,12.37.11,2.22-.5,3.16-2.78,2.78-.62-.1-1.29-.11-1.91,0-2.59.47-2.9-.86-2.87-3.06.1-9.56.06-19.11.03-28.67,0-2.44-.22-4.88-.17-7.31.02-1.28-.82-3.41,1.78-3.08,1.89.24,5.06-1.64,5.03,2.54,0,.48.1.97.16,1.59ZM377.44,89.04c0,1.21-.04,2.06,0,2.91.19,3.56,2.67,6.48,5.86,6.94,3.49.5,6.34-1.21,7.75-4.69,1.38-3.4,1.41-6.84,0-10.21-1.55-3.7-5.38-5.51-8.84-4.05-4.17,1.76-5.05,5.37-4.78,9.1Z"/>
  <path class="cls-2" d="M188.38,78.17c2.36-2.57,4.58-3.91,7.29-4.46,5.44-1.12,10.48,2.18,11.68,8.17,1.39,6.93.37,13.99.63,20.99.04.99-.51,1.16-1.37,1.3-5.58.87-6.21.35-6.21-5.35,0-4.04.08-8.08-.02-12.12-.12-4.53-2.21-6.94-5.77-6.91-3.79.02-6.2,2.83-6.22,7.3-.02,4.89-.11,9.79.05,14.67.07,2.04-.61,2.67-2.52,2.41-.84-.11-1.71-.12-2.55,0-2,.28-2.5-.55-2.49-2.49.08-12.87.1-25.74-.01-38.6-.02-2.2.73-2.63,2.73-2.6,4.78.07,4.78-.03,4.78,4.9,0,4.01,0,8.02,0,12.8Z"/>
  <path class="cls-2" d="M316.76,78.04c1.04-.96,1.55-1.5,2.13-1.96,6.53-5.19,15.11-2.36,16.83,5.78,1.46,6.91.38,13.99.64,20.99.04.99-.49,1.17-1.36,1.3-5.58.87-6.21.35-6.22-5.34,0-4.04.08-8.08-.02-12.12-.12-4.53-2.2-6.94-5.76-6.92-3.79.02-6.21,2.83-6.23,7.29-.02,4.89-.11,9.79.05,14.67.07,2.03-.59,2.68-2.51,2.42-.84-.11-1.71-.12-2.55,0-1.99.28-2.51-.53-2.49-2.48.08-12.87.1-25.74,0-38.6-.02-2.18.71-2.64,2.72-2.61,4.78.07,4.78-.03,4.78,4.9,0,4.01,0,8.03,0,12.68Z"/>
  <path class="cls-2" d="M151.31,83.56c0-6.06.02-12.13-.02-18.19,0-1.25-.03-2.2,1.67-2.38,5.73-.61,11.46-1.16,17.12.25,5.14,1.27,8.29,4.56,9.11,9.88.84,5.4-1.43,10.45-5.86,13.12-3.69,2.22-7.77,2.9-11.96,2.52-2.31-.21-2.6.63-2.53,2.57.13,3.51-.05,7.02.07,10.53.06,1.74-.38,2.35-2.25,2.35-5.37.02-5.37.11-5.37-5.32,0-5.11,0-10.21,0-15.32ZM162.35,68.29c-2.84-.7-3.82.76-3.51,3.97.27,2.83.05,5.72.06,8.58,0,.71-.14,1.45.7,1.93,3.91,2.23,11.48-1.6,12.09-6.15.72-5.37-2.42-8.32-9.35-8.32Z"/>
  <path class="cls-2" d="M224.47,104.78c-8.95.04-15.1-6.16-15.12-15.27-.03-9.49,6.39-16.1,15.57-16.03,8.82.07,15.05,6.51,15,15.5-.05,9.38-6.29,15.75-15.45,15.8ZM232.06,88.93c-.22-1.82-.3-3.71-1.16-5.48-1.32-2.71-3.23-4.46-6.38-4.38-3.26.08-5.24,1.92-6.39,4.84-1.34,3.41-1.33,6.85-.09,10.24,1.09,2.99,3.12,5.09,6.49,5.27,2.9.16,5.47-2.04,6.69-5.43.58-1.62.75-3.3.85-5.06Z"/>
  <path class="cls-2" d="M286.64,88.99c-.01,9.42-6.25,15.82-15.39,15.79-9.09-.03-15.3-6.41-15.18-15.61.12-9.31,6.55-15.77,15.63-15.69,8.9.08,14.95,6.36,14.94,15.51ZM278.89,89.23c-.08-2.15-.4-4.14-1.29-5.98-1.24-2.56-3.1-4.27-6.16-4.21-2.97.06-4.94,1.53-6.19,4.18-1.84,3.91-1.67,7.86-.12,11.72,1.05,2.62,3.19,4.35,6.1,4.44,2.92.09,4.98-1.52,6.26-4.13.96-1.95,1.23-4.04,1.41-6.03Z"/>
  <path class="cls-2" d="M352.62,104.78c-8.92-.06-14.95-6.34-14.89-15.5.06-9.33,6.39-15.79,15.48-15.8,8.81,0,15.07,6.39,15.09,15.41.02,9.48-6.37,15.95-15.68,15.89ZM360.5,89.53c-.26-2.36-.34-4.25-1.19-6.03-1.3-2.7-3.19-4.5-6.35-4.44-3.25.06-5.26,1.86-6.44,4.78-1.33,3.29-1.3,6.63-.27,9.96,1.01,3.26,3.79,5.58,6.58,5.65,3.01.08,5.7-2.1,6.81-5.7.46-1.5.64-3.1.86-4.21Z"/>
  <path class="cls-2" d="M199.1,44.74c-5.57,4.82-10.04,5.54-14.66,2.45-4.97-3.33-6.87-11.07-4.4-17.9,1.84-5.1,6.54-8.05,11.94-7.65,2.43.18,4.37,1.37,6.82,3.19,0-4.58.11-8.55-.04-12.51-.08-1.99.58-2.49,2.52-2.54,2.16-.06,2.37.84,2.36,2.63-.06,11.06,0,22.13,0,33.19,0,1.22.8,2.83-1.68,2.85-1.96.02-2.76-.57-2.54-2.52.04-.37-.19-.76-.31-1.2ZM198.81,34.9c0-.85.05-1.7,0-2.55-.25-3.67-2.45-6.27-5.87-6.98-3.25-.67-6.35,1.03-7.94,4.41-1.36,2.9-1.59,5.93-.79,9,1.09,4.18,4.31,6.73,7.95,6.4,3.76-.35,6.46-3.59,6.66-8.05.03-.74,0-1.49,0-2.23Z"/>
  <path class="cls-2" d="M240.27,44.39c-.17,1.53,0,2.69-.46,3.49-.61,1.06-1.94.47-2.94.48-1.37.02-.99-1.13-.99-1.89.05-11.25.14-22.49.18-33.74,0-1.67-.18-2.97,2.36-2.98,2.57,0,2.36,1.33,2.35,2.99-.03,4.12-.01,8.24-.01,12.66,1.66-1.09,3-2.28,4.55-2.94,6.35-2.71,12.77.46,14.83,7.19,2.77,9.07-1.43,17.74-9.3,19.16-4.22.76-7.61-.77-10.57-4.42ZM240.77,35.58c-.33,3.82.59,7.28,4.63,9,5.43,2.31,10.43-1.84,10.66-8.72.21-6.3-2.73-10.51-7.49-10.65-4.09-.12-8.44,3.4-7.8,10.37Z"/>
  <path class="cls-2" d="M148.46,48.05c1.54-4.5,3.08-8.99,4.62-13.48,2.34-6.82,4.78-13.61,6.95-20.48.61-1.94,1.52-2.5,3.38-2.34,1.65.14,3.11-.26,3.88,2.11,3.47,10.68,7.23,21.27,10.82,31.91.26.78,1.63,2.24-.2,2.48-1.38.18-3.51,1.3-4.37-1.12-1-2.8-2.02-5.59-2.86-8.43-.4-1.34-.97-1.87-2.42-1.82-3.19.11-6.38.1-9.57,0-1.32-.04-1.9.49-2.25,1.67-.63,2.14-1.59,4.2-2.01,6.37-.67,3.45-2.65,4.13-5.98,3.13ZM163.66,16.12c-1.97,6.08-3.71,11.44-5.49,16.91h10.81c-1.65-5.52-3.91-10.66-5.32-16.91Z"/>
  <path class="cls-2" d="M242.56,88.71c0-1.81-.05-3.61.01-5.42.07-2.06.36-3.89-2.89-3.62-2.35.2-1.02-2.05-1.21-3.17-.17-.99-.55-2.64,1.44-2.36,2.37.34,3.05-.71,2.64-2.82-.67-3.5,2.21-3.01,4.09-3.83,2.95-1.28,4.03-.41,3.48,2.64-.6,3.37.81,4.38,4.07,4.04,2.73-.28,4.21,2.31,3.02,4.91-.62,1.35-1.86.64-2.8.66-4.28.1-4.28.06-4.28,4.4,0,3.29-.06,6.59.02,9.88.09,3.59,1.11,4.52,4.63,4.58.92.02,2.45-.68,2.1,1.21-.3,1.62,1.38,3.95-1.63,4.71-7.31,1.84-12.25-1.66-12.65-9.13-.12-2.22-.02-4.46-.02-6.69-.01,0-.02,0-.03,0Z"/>
  <path class="cls-2" d="M295.14,104.82c-1.94.04-3.8-.38-5.68-.77-2.41-.5-3.31-1.4-2.44-4.13.7-2.23,1.26-2.67,3.33-1.61,1.9.97,4.05,1.39,6.19,1.08,1.58-.23,3.18-.72,3.55-2.66.4-2.05-.8-3.23-2.41-4.03-1.32-.66-2.78-1.05-4.14-1.64-4.59-1.96-6.79-5.2-6.34-9.24.46-4.13,3.52-6.95,8.33-8,2.48-.54,4.87-.2,7.27.24,3.57.66,3.62,1.03,2.64,4.62-.51,1.86-1.17,1.9-2.6,1.12-1.45-.78-3.07-.72-4.67-.74-1.92-.03-3.44.68-3.79,2.63-.34,1.88,1.05,2.87,2.57,3.57,1.16.53,2.35.99,3.53,1.47,5.39,2.17,7.71,5.49,6.97,9.99-.75,4.58-4.32,7.51-9.76,7.98-.85.07-1.7.09-2.55.13Z"/>
  <path class="cls-2" d="M232.66,35.1c-.01,8.06-5.48,13.9-13.05,13.94-7.21.04-12.64-5.73-12.72-13.52-.09-8.18,5.43-13.98,13.27-13.95,7.43.03,12.52,5.54,12.51,13.53ZM211.91,35.32c.04,5.86,3.43,10.1,7.98,9.97,4.24-.12,7.51-3.95,7.87-9.23.38-5.56-2.5-10.17-6.77-10.75-.72-.1-1.48-.09-2.21,0-4.22.55-6.91,4.49-6.87,10.01Z"/>
  <path class="cls-2" d="M275.97,36.05c-2.44,0-4.89.08-7.33-.03-1.72-.08-1.92.69-1.66,2.12.74,4.18,3.64,6.76,8.14,7.13,2.15.18,4.26-.14,6.28-.79,1.14-.36,1.82-.48,2.01.91.14,1.02.62,2.05-1,2.47-5.74,1.51-11.53,2.18-16.24-2.17-4.75-4.39-4.78-10.2-2.94-15.96,1.89-5.91,7.33-8.98,13.52-8.01,5.04.78,8.51,5.61,8.65,11.78.04,1.84-.31,2.74-2.42,2.57-2.32-.19-4.67-.04-7.01-.04ZM273.77,32.62c1.69,0,3.39-.05,5.08.01,1.43.05,2.12-.15,1.71-1.94-.72-3.09-2.25-5.23-5.5-5.76-2.96-.49-5.62,1.12-7.12,4.18-1.59,3.25-1.45,3.49,2.02,3.51,1.27,0,2.54,0,3.81,0Z"/>
  <path class="cls-2" d="M134.29,60.9c0-18.17,0-36.34,0-54.51,0-.74,0-1.49,0-2.23,0-.69.18-1.34,1.03-1.23.66.08.67.71.67,1.24,0,.74,0,1.49,0,2.23,0,36.45,0,72.9,0,109.35,0,.43.11.89-.02,1.27-.26.78.76,2.25-.81,2.25-1.5,0-.84-1.46-.85-2.26-.04-18.7-.03-37.4-.03-56.11Z"/>
  <path class="cls-1" d="M61.29,114.37c-17.45,0-34.91-.05-52.36.05-2.6.02-3.64-.34-3.63-3.38.15-34.15.14-68.3.08-102.44,0-2.57.57-3.43,3.31-3.42,35.23.07,70.45.04,105.68-.07,2.5,0,3.19.63,3.19,3.16-.08,34.36-.09,68.72,0,103.08,0,2.67-.91,3.08-3.26,3.07-17.67-.09-35.33-.05-53-.05ZM29.7,55.55c0,7.22,0,14.45,0,21.67,0,6.68,0,6.61,6.84,6.46,1.81-.04,2.37-.57,2.34-2.37-.1-4.88.1-9.78-.06-14.66-.08-2.5.33-3.65,3.25-3.32,3.37.38,6.75-.17,10.01-1.3,7.91-2.73,12-9.11,11.69-18.35-.27-8.14-4.72-13.69-12.7-15.73-6.18-1.58-12.46-.48-18.7-.66-2.08-.06-2.74.67-2.71,2.75.1,8.5.04,17,.04,25.49ZM68.67,73.24c0,2.34.13,4.33-.03,6.29-.17,2.09.73,3.01,2.67,3.6,3.83,1.17,7.7,1.6,11.64,1.02,5.92-.87,9.64-4.13,10.87-9.28,1.45-6.13-.68-10.71-6.73-14.32-2.46-1.47-5.03-2.75-7.44-4.3-1.43-.92-2.69-2.21-2.08-4.21.58-1.89,2.15-2.54,3.91-2.76,2.02-.25,4.02-.02,6,.48,5.12,1.28,5.01,1.26,5.07-4.27.02-2.17-.85-2.97-2.8-3.43-3.47-.83-6.99-.93-10.45-.46-6.07.83-10.23,5.37-10.61,10.94-.44,6.51,3.29,10.2,8.5,12.94,2.35,1.23,4.85,2.23,6.72,4.19,2.25,2.35,1.56,5.32-1.44,6.25-1.52.47-3.09.58-4.72.39-3.09-.36-5.88-1.58-9.07-3.07Z"/>
  <path class="cls-2" d="M29.71,55.55c0-8.5.06-17-.04-25.49-.02-2.08.63-2.81,2.71-2.75,6.24.17,12.52-.92,18.7.66,7.99,2.04,12.43,7.6,12.7,15.73.31,9.24-3.78,15.62-11.69,18.35-3.26,1.12-6.64,1.68-10.01,1.3-2.93-.33-3.34.81-3.25,3.32.16,4.88-.03,9.77.06,14.66.04,1.8-.52,2.33-2.34,2.37-6.84.15-6.84.22-6.84-6.46,0-7.22,0-14.45,0-21.67ZM38.89,45.27c0,.95-.18,1.95.04,2.85.56,2.33-1.76,5.68,1.37,6.89,2.32.9,5.25.24,7.81-.56,4.1-1.29,6.19-4.28,6.33-8.88.14-4.52-1.89-8.01-5.66-9.36-2.62-.94-5.36-1.09-8.15-.85-1.4.12-1.79.65-1.76,1.96.07,2.65.02,5.3.02,7.95Z"/>
  <path class="cls-2" d="M68.67,73.24c3.19,1.5,5.98,2.72,9.07,3.07,1.63.19,3.2.08,4.72-.39,3.01-.94,3.69-3.91,1.44-6.25-1.87-1.96-4.38-2.96-6.72-4.19-5.22-2.74-8.95-6.43-8.5-12.94.38-5.58,4.54-10.11,10.61-10.94,3.47-.47,6.98-.37,10.45.46,1.95.47,2.82,1.26,2.8,3.43-.06,5.53.05,5.55-5.07,4.27-1.98-.49-3.98-.73-6-.48-1.76.22-3.33.86-3.91,2.76-.61,2.01.65,3.29,2.08,4.21,2.4,1.55,4.98,2.83,7.44,4.3,6.05,3.61,8.19,8.19,6.73,14.32-1.22,5.16-4.95,8.41-10.87,9.28-3.94.58-7.81.15-11.64-1.02-1.94-.59-2.84-1.5-2.67-3.6.16-1.97.03-3.95.03-6.29Z"/>
  <path class="cls-1" d="M38.89,45.27c0-2.65.05-5.3-.02-7.95-.04-1.31.36-1.84,1.76-1.96,2.79-.25,5.53-.09,8.15.85,3.77,1.35,5.8,4.85,5.66,9.36-.14,4.6-2.22,7.59-6.33,8.88-2.56.81-5.49,1.46-7.81.56-3.13-1.21-.82-4.55-1.37-6.89-.22-.9-.04-1.9-.04-2.85Z"/>
</svg>