<?xml version="1.0" encoding="UTF-8"?>
<svg id="Laag_1" data-name="Laag 1" xmlns="http://www.w3.org/2000/svg" viewBox="0 0 490.88 60.81">
  <defs>
    <style>
      .cls-1 {
        fill: #fff;
        stroke-width: 0px;
      }
    </style>
  </defs>
  <path class="cls-1" d="M25.84,18.68c.47-7.48,8.12-15.66,16.31-17.6,12.85-3.05,23.7.38,32.11,10.44,5.72,6.83,16.47,10.15,24.64,1.2.3-.33.72-.54,1.76-1.3-2.36,7.76-5.81,13.85-12.98,16.54-12.23,4.59-23.57,3.33-33.21-6.34-2.27-2.28-4.51-4.66-7.08-6.56-5.96-4.39-14.03-3.5-19.49,1.8-.64.62-.95,1.67-2.05,1.82Z"/>
  <path class="cls-1" d="M75.19,41.45c-2.31,10.26-9.48,18.29-22.19,19.25-9.13.69-17-1.83-23.54-8.3-2.02-2-4.15-3.89-6.15-5.9-4.97-5-14.5-5.64-20.67.69-.76.78-1.47,1.61-2.64,2.91,2.05-11.03,11.03-18.69,21.21-19.53,10.8-.89,19.66,2.47,26.89,10.45,1.33,1.47,2.7,2.97,4.28,4.15,6.76,5.04,13.75,4.59,20.04-1.16.83-.76,1.66-1.52,2.77-2.55Z"/>
  <path class="cls-1" d="M247.71,41.86c2.18-7.08,4.41-14.14,6.48-21.24.52-1.78,1.15-2.86,3.22-2.49.92.16,1.91.12,2.84,0,1.6-.2,2.26.38,2.72,1.99,1.93,6.8,4.07,13.54,6.13,20.31.16.52.37,1.03.74,2.07,2.04-7.09,3.94-13.65,5.81-20.22,1.17-4.12,1.14-4.12,5.33-4.12,1.23,0,2.46,0,3.9,0-3.66,11.62-7.25,23.05-10.84,34.48-.29.94-.83,1.25-1.85,1.32-6.01.43-5.98.46-7.73-5.31-1.83-6.02-3.71-12.02-5.79-18.75-2.38,7.54-4.6,14.29-6.61,21.1-.61,2.08-1.31,3.14-3.78,2.99-5.77-.36-4.29.99-6.06-4.48-3.34-10.31-6.5-20.68-9.73-31,.3-.17.45-.31.6-.32,7.37-.25,7.35-.25,9.33,6.94,1.38,5.01,2.84,10,4.28,15,.18.61.08,1.37.99,1.73Z"/>
  <path class="cls-1" d="M376.02,49.63c-8.48,6.99-18.56,6.82-24.93-.41-7.14-8.11-6.64-19.89,1.05-27.41,4.94-4.83,16.82-7.16,24.15,1.14,0-5.68.14-10.93-.06-16.16-.09-2.4.59-3.02,2.95-2.93,4.88.19,4.89.05,4.89,4.91,0,14.13-.05,28.27.05,42.4.01,2.14-.41,2.91-2.73,2.81-4.74-.19-4.75-.05-5.37-4.36ZM376.43,35.96c-.08-6.64-5.04-11.55-11.52-11.43-6.27.12-11.16,5.12-11.05,11.29.13,6.81,4.87,11.66,11.35,11.61,6.34-.04,11.29-5.11,11.21-11.47Z"/>
  <path class="cls-1" d="M185.38,49.42c-8.33,8.6-19.4,5.4-24.78.03-6.51-6.49-7.02-18.8-.97-25.75,6.83-7.85,16.43-8.37,25.57-1.4.95-4.2.95-4.1,5.8-4.19,1.85-.03,2.36.45,2.34,2.32-.1,10.43-.08,20.86,0,31.3.01,1.7-.37,2.52-2.18,2.2-.28-.05-.57,0-.85,0q-4.47,0-4.91-4.51ZM163.04,36.06c.1,6.74,4.94,11.5,11.47,11.31,6.49-.19,11.21-5.08,11.08-11.48-.14-6.65-4.99-11.42-11.52-11.36-6.34.06-11.13,5.07-11.02,11.53Z"/>
  <path class="cls-1" d="M315.08,22.17c6.72-5.95,14.99-6.39,20.47-1.34,2.81,2.59,4.05,5.93,4.14,9.62.16,7.2.07,14.41.16,21.61.02,1.52-.5,1.88-1.96,1.91-5.69.13-5.69.19-5.69-5.52,0-5.21.14-10.43-.06-15.64-.26-6.84-5.47-10.2-11.81-7.68-3.86,1.54-5.15,4.84-5.2,8.68-.08,5.88-.11,11.76.02,17.63.04,2.01-.56,2.56-2.55,2.54-5.27-.07-5.27.02-5.27-5.32,0-9.29.09-18.58-.06-27.87-.04-2.22.64-2.88,2.68-2.53.28.05.57.03.85,0,2.74-.31,5.24-.31,4.28,3.91Z"/>
  <path class="cls-1" d="M391.11,37.5c-.02-9.73,5.15-16.96,12.6-19.2,8.25-2.47,16.82.19,21.08,6.41.94,1.37,1.14,2.26-.6,2.93-.35.14-.72.27-1.01.5-2.27,1.82-3.96,2.42-6.28-.54-2.57-3.29-8.65-3.41-12.64-1.11-4.11,2.37-6.16,7.29-5.07,12.24.91,4.13,3.35,7.02,7.43,8.14,4.3,1.18,8.46.52,11.35-3.08,1.42-1.77,2.32-1.45,3.85-.59,4.79,2.71,4.94,3.08.72,6.75-6.36,5.54-13.59,6.35-21.12,2.88-7.09-3.26-9.98-9.38-10.31-15.34Z"/>
  <path class="cls-1" d="M443.4,54.8c-5.18.01-9.56-1.96-12.8-6.33-.99-1.33-1.09-2.31.64-3,.44-.17.85-.42,1.23-.7,2.04-1.48,3.65-2.58,5.6.61,1.65,2.7,6.73,3.19,9.66,1.84,1.44-.66,2.35-1.73,2.38-3.25.03-1.42-.87-2.53-2.2-3.02-2.73-1.01-5.52-1.89-8.28-2.83-2.71-.93-5.34-2.03-7.13-4.41-2.62-3.49-2.03-9.16,1.22-12.51,5.71-5.89,17.73-4.85,22.43,1.91.81,1.16,1.27,2.08-.56,2.67-.71.23-1.4.63-2,1.07-1.66,1.22-2.88,1.76-4.44-.5-1.49-2.16-5.45-2.62-7.86-1.56-1.36.6-2.43,1.37-2.45,3.12-.02,1.72.93,2.69,2.32,3.2,3.37,1.24,6.82,2.25,10.17,3.53,3.47,1.32,5.87,3.67,6.44,7.55.82,5.55-1.98,10.07-7.47,11.78-2.17.68-4.43,1.07-6.91.85Z"/>
  <path class="cls-1" d="M477.06,54.92c-5.57,0-10.18-1.91-13.54-6.5-1-1.36-1.05-2.31.69-2.99.7-.27,1.38-.66,1.97-1.12,1.81-1.42,3-1.64,4.52.75,1.87,2.93,7.26,3.66,10.37,2.01,1.32-.7,1.92-1.86,1.96-3.24.04-1.5-1-2.49-2.28-2.96-3.19-1.18-6.46-2.15-9.66-3.32-5.13-1.87-7.2-4.72-7.2-9.67,0-3.29,1.49-5.83,4.01-7.79,5.99-4.66,16.38-3.28,21.05,2.68,1.12,1.43,1.18,2.39-.63,3.13-.52.21-1.04.46-1.5.78-1.81,1.29-3.2,1.95-4.93-.51-1.51-2.15-5.47-2.44-7.91-1.29-1.16.55-2.07,1.27-2.16,2.72-.1,1.51.53,2.5,1.83,3.23,2.93,1.64,6.24,2.13,9.35,3.24,5.7,2.05,8.23,5.49,7.86,10.95-.33,4.78-4.3,8.56-10.11,9.56-1.21.21-2.45.23-3.68.33Z"/>
  <path class="cls-1" d="M135.21,34.9c0-2.28-.15-4.57.04-6.83.18-2.09-.64-2.57-2.56-2.46-1.25.08-3.35.71-3.65-.41-.56-2.02-.34-4.33-.06-6.47.12-.93,1.49-.44,2.28-.46,3.95-.08,3.95-.06,3.95-4.08,0-6.09,0-6.07,6.1-7.39,1.32-.29,1.88-.13,1.81,1.41-.12,2.65.04,5.32-.06,7.97-.06,1.51.26,2.35,1.97,2.08.56-.09,1.14-.01,1.71-.01,5.53,0,5.97.53,5.16,6.09-.11.76-.22,1.29-1.13,1.21-.28-.02-.57,0-.85,0-2.17.05-5.15-.76-6.31.35-1.53,1.45-.41,4.46-.49,6.79-.1,3.13-.03,6.26-.02,9.39.01,3.79.88,4.74,4.55,4.98,4.66.32,4.65.35,4.27,5.25-.09,1.17-.44,1.66-1.64,1.76-2.57.23-5.14.23-7.65-.27-4.1-.81-6.44-3.57-7.03-7.85-.51-3.68-.34-7.38-.37-11.07Z"/>
  <path class="cls-1" d="M226.77,27.83c0,7.86-.06,15.73.04,23.59.03,1.98-.52,2.58-2.53,2.55-5.39-.07-5.39.02-5.39-5.24,0-14.69.05-29.37-.06-44.06-.02-2.28.41-3.1,2.88-2.99,5.05.21,5.05.05,5.05,5.12,0,7.01,0,14.02,0,21.03Z"/>
  <path class="cls-1" d="M202.36,36.06c0-5.3.06-10.6-.04-15.9-.03-1.59.4-2.04,2.02-2.05,5.67-.03,5.67-.1,5.67,5.5,0,9.18-.07,18.36.05,27.54.03,2.2-.51,2.91-2.8,2.83-4.9-.17-4.91-.04-4.91-4.87v-13.06Z"/>
  <path class="cls-1" d="M290.66,35.81c0-5.21.06-10.42-.03-15.63-.03-1.56.34-2.07,2-2.08,5.73-.04,5.73-.11,5.73,5.45,0,9.19-.06,18.37.05,27.56.03,2.15-.42,2.95-2.77,2.87-4.97-.18-4.97-.04-4.97-5.11v-13.07Z"/>
  <path class="cls-1" d="M206.18,3.13c2.69-.05,4.82,2.1,4.83,4.86,0,2.56-2.37,4.98-4.86,4.94-2.43-.04-4.92-2.56-4.93-4.99-.02-2.57,2.23-4.75,4.96-4.8Z"/>
  <path class="cls-1" d="M294.43,12.92c-2.52-.09-4.81-2.52-4.77-5.07.04-2.74,2.46-4.91,5.27-4.72,2.59.17,4.46,2.26,4.42,4.93-.04,2.55-2.47,4.95-4.92,4.86Z"/>
</svg>