<?xml version="1.0" encoding="UTF-8"?>
<svg id="Layer_2" data-name="Layer 2" xmlns="http://www.w3.org/2000/svg" viewBox="0 0 681.18 274.55">
  <defs>
    <style>
      .cls-1 {
        fill: none;
        stroke: #fffce8;
        stroke-linecap: round;
        stroke-miterlimit: 10;
        stroke-width: 50px;
      }

      .cls-2 {
        fill: #fffce8;
        stroke-width: 0px;
      }
    </style>
  </defs>
  <g id="Layer_5" data-name="Layer 5">
    <g>
      <path class="cls-2" d="M333.79,274.55c-4.87,0-9.11-.78-12.74-2.32-3.62-1.55-6.43-3.83-8.42-6.85-1.99-3.01-2.99-6.71-2.99-11.08,0-2.16.25-4.42.75-6.8,1.94-8.96,5.83-15.88,11.7-20.74,5.86-4.87,14.05-7.3,24.56-7.3,3.32,0,6.28.19,8.88.58,2.6.39,5.01.97,7.22,1.74l-2.9,13.36c-2.21-.94-4.58-1.58-7.09-1.91-2.52-.33-5.13-.5-7.84-.5-4.76,0-8.77,1.16-12.03,3.48s-5.45,6.09-6.55,11.28c-.5,2.16-.75,4.04-.75,5.64,0,2.82.84,4.88,2.53,6.18,1.69,1.3,4.52,1.95,8.5,1.95,1.44,0,2.81-.1,4.11-.29,1.3-.19,2.56-.46,3.78-.79l1.66-7.8h-10.62l2.07-9.62h23.65l-5.72,26.88c-2.32,1.27-5.3,2.41-8.92,3.4-3.62,1-7.9,1.49-12.82,1.49Z"/>
      <path class="cls-2" d="M385.23,274.55c-4.54,0-8.38-.76-11.53-2.28-3.15-1.52-5.55-3.59-7.18-6.22-1.63-2.63-2.45-5.6-2.45-8.92,0-1.44.17-2.93.5-4.48l6.89-32.36h15.6l-6.64,31.2c-.33,1.55-.5,2.9-.5,4.07,0,2.05.63,3.51,1.91,4.4,1.27.89,3.35,1.33,6.22,1.33,3.54,0,6.19-.75,7.96-2.24,1.77-1.49,3.01-4.01,3.73-7.55l6.64-31.2h15.6l-6.97,32.86c-1.55,7.52-4.76,12.97-9.62,16.35-4.87,3.38-11.59,5.06-20.16,5.06Z"/>
      <path class="cls-2" d="M442.39,274.55c-4.54,0-8.38-.76-11.53-2.28-3.15-1.52-5.55-3.59-7.18-6.22-1.63-2.63-2.45-5.6-2.45-8.92,0-1.44.17-2.93.5-4.48l6.89-32.36h15.6l-6.64,31.2c-.33,1.55-.5,2.9-.5,4.07,0,2.05.63,3.51,1.91,4.4,1.27.89,3.35,1.33,6.22,1.33,3.54,0,6.19-.75,7.96-2.24,1.77-1.49,3.01-4.01,3.73-7.55l6.64-31.2h15.6l-6.97,32.86c-1.55,7.52-4.76,12.97-9.62,16.35-4.87,3.38-11.59,5.06-20.16,5.06Z"/>
      <path class="cls-2" d="M492.18,274.55c-3.6,0-6.94-.29-10.04-.87-3.1-.58-5.64-1.4-7.63-2.45l2.74-12.86c2.27,1.16,4.84,2.1,7.72,2.82,2.88.72,5.64,1.08,8.3,1.08s4.9-.23,6.39-.71c1.49-.47,2.43-1.54,2.82-3.19.05-.22.08-.5.08-.83,0-1.38-.86-2.41-2.57-3.07-1.71-.66-4.26-1.58-7.63-2.74-3.76-1.33-6.61-2.95-8.55-4.85-1.94-1.91-2.9-4.38-2.9-7.43,0-.61.03-1.23.08-1.87.05-.63.17-1.31.33-2.03,1.11-5.25,3.72-9.25,7.84-11.99,4.12-2.74,10.08-4.11,17.88-4.11,2.93,0,5.9.25,8.92.75,3.01.5,5.41,1.05,7.18,1.66l-2.74,12.94c-2.38-1.05-4.7-1.8-6.97-2.24-2.27-.44-4.45-.66-6.55-.66-2.43,0-4.55.19-6.35.58-1.8.39-2.89,1.38-3.28,2.99-.06.17-.08.41-.08.75,0,1.05.69,1.85,2.07,2.41,1.38.55,3.68,1.33,6.89,2.32,4.81,1.44,8.16,3.21,10.04,5.31,1.88,2.1,2.82,4.59,2.82,7.47,0,.72-.06,1.47-.17,2.24-.11.78-.25,1.58-.41,2.41-.66,3.21-1.95,6.03-3.86,8.46-1.91,2.43-4.66,4.33-8.26,5.68-3.6,1.35-8.3,2.03-14.1,2.03Z"/>
      <path class="cls-2" d="M521.05,273.72l11.28-53.43h15.6l-8.79,41.49h24.06l-2.49,11.95h-39.66Z"/>
      <path class="cls-2" d="M563.2,273.72l31.78-53.43h16.51l9.21,53.43h-16.26l-1.91-11.37h-16.26l-6.8,11.37h-16.26ZM590.66,251.15h11.95l-2.66-15.68-9.29,15.68Z"/>
      <path class="cls-2" d="M626.59,273.72l11.28-53.43h29.37c4.59,0,8.06.98,10.41,2.95,2.35,1.96,3.53,4.66,3.53,8.09,0,.55-.04,1.15-.12,1.78-.08.64-.18,1.29-.29,1.95-.55,2.77-1.55,5.09-2.99,6.97-1.44,1.88-3.13,3.37-5.06,4.48,1.71.72,3.06,1.7,4.02,2.95.97,1.24,1.45,2.92,1.45,5.02,0,.5-.04,1.04-.12,1.62-.08.58-.18,1.18-.29,1.78-1.05,5.03-3.42,8.93-7.09,11.7-3.68,2.77-8.37,4.15-14.06,4.15h-30.04ZM643.85,262.85h10.79c2.1,0,3.75-.44,4.94-1.33,1.19-.88,2-2.35,2.45-4.4.05-.28.1-.54.12-.79.03-.25.04-.48.04-.71,0-1.27-.44-2.21-1.33-2.82-.89-.61-2.3-.91-4.23-.91h-10.46l-2.32,10.95ZM648.41,241.61h10.12c1.99,0,3.53-.44,4.6-1.33,1.08-.88,1.81-2.16,2.2-3.82.11-.28.17-.55.17-.83v-.75c0-1.22-.4-2.13-1.2-2.74-.8-.61-2.14-.91-4.02-.91h-9.71l-2.16,10.37Z"/>
    </g>
    <path class="cls-1" d="M135.41,247v-55.5c0-30.66,24.84-55.5,55.5-55.5,73.6,2.9,73.62,108.09,0,111,0,0-55.5,0-55.5,0-147.22-5.84-147.21-216.17,0-222,0,0,111,0,111,0"/>
  </g>
</svg>